<?xml version="1.0" encoding="UTF-8" standalone="no"?>
<!-- Created with Inkscape (http://www.inkscape.org/) -->

<svg
   width="210mm"
   height="297mm"
   viewBox="0 0 210 297"
   version="1.1"
   id="svg8303"
   inkscape:export-filename="logo noir.png"
   inkscape:export-xdpi="108.35514"
   inkscape:export-ydpi="108.35514"
   inkscape:version="1.2.2 (b0a8486541, 2022-12-01)"
   sodipodi:docname="Logo - noir.svg"
   xmlns:inkscape="http://www.inkscape.org/namespaces/inkscape"
   xmlns:sodipodi="http://sodipodi.sourceforge.net/DTD/sodipodi-0.dtd"
   xmlns="http://www.w3.org/2000/svg"
   xmlns:svg="http://www.w3.org/2000/svg">
  <sodipodi:namedview
     id="namedview8305"
     pagecolor="#ffffff"
     bordercolor="#999999"
     borderopacity="1"
     inkscape:showpageshadow="0"
     inkscape:pageopacity="0"
     inkscape:pagecheckerboard="0"
     inkscape:deskcolor="#d1d1d1"
     inkscape:document-units="mm"
     showgrid="false"
     inkscape:zoom="0.74742565"
     inkscape:cx="300.36433"
     inkscape:cy="560.59088"
     inkscape:window-width="1665"
     inkscape:window-height="749"
     inkscape:window-x="50"
     inkscape:window-y="118"
     inkscape:window-maximized="0"
     inkscape:current-layer="layer1" />
  <defs
     id="defs8300" />
  <g
     inkscape:label="Calque 1"
     inkscape:groupmode="layer"
     id="layer1">
    <path
       class="st0"
       d="m 52.944268,140.77357 h -13.33953 v 31.30156 H 70.785881 V 158.62047 H 52.944268 Z"
       id="path2066"
       style="fill:#000000;fill-opacity:1;stroke-width:0.277947" />
    <path
       class="st0"
       d="m 120.00317,140.91253 v 17.70794 h -17.86941 v 13.45466 h 31.18113 v -31.30156 h -13.47846 z"
       id="path2068"
       style="fill:#000000;fill-opacity:1;stroke-width:0.277947" />
    <path
       class="st0"
       d="m 39.63252,109.61099 h 13.478491 l -0.138885,-0.13906 V 91.79185 H 70.841535 V 78.309428 H 39.63252 Z"
       id="path2070"
       style="fill:#000000;fill-opacity:1;stroke-width:0.277947" />
    <path
       class="st0"
       d="m 102.16156,78.309386 v 13.454695 h 17.86939 v 17.846909 h 13.33953 V 78.309386 c -0.0278,0 -31.20892,0 -31.20892,0 z"
       id="path2072"
       style="fill:#000000;fill-opacity:1;stroke-width:0.277947" />
    <path
       class="st1"
       d="M 100.38295,109.61099 82.513533,91.764081 H 102.13376 V 78.309386 H 70.813684 v 13.454695 l 17.869394,17.846909 z"
       id="path2074"
       style="fill:#595959;fill-opacity:1;stroke-width:0.277947" />
    <path
       class="st1"
       d="m 120.00317,109.61099 v 19.45924 l -3.08476,-3.08571 -14.78465,-14.78901 v 11.87013 l 8.78186,8.78447 8.92081,8.92346 h 13.47846 v -31.16258 z"
       id="path2078"
       style="fill:#595959;fill-opacity:1;stroke-width:0.277947" />
    <path
       class="st1"
       d="M 70.813684,127.31887 53.083222,109.61099 H 39.63252 v 31.13477 h 13.33953 v -19.45923 l 17.869412,17.84689 v -11.81455 z"
       id="path2080"
       style="fill:#000000;fill-opacity:0.65;stroke-width:0.277947" />
    <g
       id="g1566"
       inkscape:label="Bateau"
       transform="matrix(9.9586749,0,0,9.5718741,-593.99313,-1123.6465)"
       style="display:inline;fill:#000000;fill-opacity:1">
      <g
         id="g3191"
         style="fill:#000000;fill-opacity:1"
         transform="translate(4.2962888,-11.813933)">
        <path
           d="m 64.82231,144.94789 c -0.176237,0.0721 -0.60082,0.20829 -0.60082,0.20829 l -0.01603,0.10413 -0.336446,0.12819 c 0.592824,-0.14422 1.345821,-0.44861 1.345821,-0.44861 l -0.0881,-0.0961 c 0,0 -0.128189,0.032 -0.304426,0.10413"
           style="fill:#000000;fill-opacity:1;fill-rule:nonzero;stroke:none;stroke-width:0.00361809"
           id="path86" />
        <path
           d="m 66.472557,140.73419 1.289741,1.34582 0.512683,0.016 c 0,0 -0.240314,-0.0801 -0.640872,-0.46464 -0.400523,-0.38453 -0.63284,-1.10551 -0.63284,-1.10551 l -0.528712,0.2083"
           style="fill:#000000;fill-opacity:1;fill-rule:nonzero;stroke:none;stroke-width:0.00361809"
           id="path88" />
        <path
           d="m 66.441767,140.71165 0.599554,-0.29788 -0.634107,0.21477 z"
           style="fill:#000000;fill-opacity:1;fill-rule:nonzero;stroke:none;stroke-width:0.00361809"
           id="path90" />
        <path
           d="m 65.985707,139.28952 -0.686677,0.0149 c 0,0 0.70162,0.88824 0.70162,0.9106 0,0.0224 0.05225,0.007 0.134339,0.0448 0.07746,0.0352 0.24111,0.1898 0.259417,0.20724 l -0.110134,0.0167 0.02985,0.0373 c 0,0 0.35081,-0.0448 0.425451,-0.0597 0.07464,-0.0149 0.03734,-0.0523 0.03734,-0.0523 l -0.38189,0.0579 c -0.01245,-0.0189 -0.166323,-0.2563 -0.245089,-0.53555 -0.08209,-0.29111 -0.164225,-0.64188 -0.164225,-0.64188"
           style="fill:#000000;fill-opacity:1;fill-rule:nonzero;stroke:none;stroke-width:0.00361809"
           id="path92" />
        <path
           d="m 62.780839,138.98567 1.525749,-0.24487 -1.534107,0.18543 c -3.62e-4,3e-5 -8.32e-4,1.1e-4 -0.0012,1.8e-4 -0.01639,0.003 -0.0275,0.018 -0.02489,0.0344 0.0026,0.0163 0.01802,0.0275 0.03441,0.0249"
           style="fill:#000000;fill-opacity:1;fill-rule:nonzero;stroke:none;stroke-width:0.00361809"
           id="path94" />
        <path
           d="m 65.343822,138.6625 c -0.186622,0.0299 -0.276169,0.0672 -0.343357,0.15678 0,0 -0.283622,-0.11198 -0.410509,-0.11944 -0.126886,-0.007 -0.253772,0.0448 -0.268715,0.11195 -0.01494,0.0672 -0.01494,0.14183 0.02985,0.22396 0.04479,0.0821 0.11198,0.097 0.11198,0.097 l 1.470392,-0.29108 -0.261226,-0.0149 c 0,0 -0.14183,-0.19407 -0.328414,-0.16423"
           style="fill:#000000;fill-opacity:1;fill-rule:nonzero;stroke:none;stroke-width:0.00361809"
           id="path96" />
        <path
           d="m 65.037767,138.71475 c 0.04479,-0.0671 0.328451,-0.097 0.328451,-0.097 0,0 -0.171679,-0.0299 -0.283659,-0.0224 -0.111943,0.007 -0.283622,0.0671 -0.283622,0.0671 0.141829,0.0523 0.194075,0.11944 0.194075,0.11944 0,0 0,0 0.04476,-0.0672"
           style="fill:#000000;fill-opacity:1;fill-rule:nonzero;stroke:none;stroke-width:0.00361809"
           id="path98" />
        <path
           d="m 62.800558,141.56161 -0.286879,0.0598 v 0.51395 c 0,0 0.08369,-0.0717 0.131482,-0.11951 0.04783,-0.0478 0.179312,-0.11954 0.179312,-0.11954 l -0.02391,-0.33467"
           style="fill:#000000;fill-opacity:1;fill-rule:nonzero;stroke:none;stroke-width:0.00361809"
           id="path100" />
        <path
           d="m 62.537595,141.0118 v 0.39441 l 0.251023,-0.0478 0.03585,-0.40639 -0.286878,0.0598"
           style="fill:#000000;fill-opacity:1;fill-rule:nonzero;stroke:none;stroke-width:0.00361809"
           id="path102" />
        <path
           d="m 65.013635,137.88317 c 0.09613,0.12804 0.211224,0.22081 0.333805,0.27049 -0.02055,1.8e-4 -0.04295,5e-4 -0.06708,0.001 -0.05916,0.001 -0.128044,0.004 -0.201781,0.008 -0.03683,0.002 -0.07497,0.004 -0.113571,0.007 -0.01787,0.001 -0.03611,0.003 -0.05416,0.004 l -0.07399,-0.59651 c 0.04939,0.1046 0.105178,0.21021 0.17678,0.30551 z m -0.59315,0.37979 c 0.05916,-0.001 0.128044,-0.004 0.201781,-0.008 0.03683,-0.002 0.07497,-0.004 0.113608,-0.007 0.02544,-0.002 0.05134,-0.004 0.07717,-0.006 l 0.01574,0.33858 0.126887,-0.0448 -0.03756,-0.30301 c 0.01726,-0.002 0.03473,-0.003 0.05181,-0.005 0.03864,-0.003 0.07645,-0.008 0.113174,-0.0123 0.07334,-0.008 0.141721,-0.0175 0.200225,-0.0264 0.117045,-0.0172 0.194617,-0.034 0.194617,-0.034 0,0 -0.03477,-0.001 -0.09233,-0.002 1.08e-4,-2.9e-4 4.34e-4,-4.4e-4 5.78e-4,-7.6e-4 0.0028,-0.008 -0.0012,-0.0164 -0.009,-0.0192 -0.124427,-0.0454 -0.24187,-0.13821 -0.339594,-0.26839 -0.08528,-0.1135 -0.148089,-0.24285 -0.204603,-0.3672 -0.0035,-0.0437 -0.01093,-0.0926 -0.02663,-0.10431 -0.02985,-0.0224 -0.0373,0.0298 -0.0373,0.0298 l 0.01494,0.19407 0.02627,0.565 c -0.02656,0.003 -0.05322,0.005 -0.07938,0.008 -0.03861,0.003 -0.07645,0.008 -0.113138,0.0123 -0.07337,0.008 -0.14172,0.0175 -0.200225,0.0264 -0.117045,0.0171 -0.194653,0.0339 -0.194653,0.0339 0,0 0.07931,0.003 0.197584,2.5e-4"
           style="fill:#000000;fill-opacity:1;fill-rule:nonzero;stroke:none;stroke-width:0.00361809"
           id="path104" />
        <path
           d="m 63.469868,138.45114 c 0.09172,-0.11926 0.139188,-0.39079 0.157532,-0.52228 l 0.0092,0.119 0.02417,0.51967 c -0.0178,0.002 -0.03575,0.003 -0.05337,0.005 -0.0386,0.003 -0.07645,0.008 -0.113137,0.0123 -0.07337,0.008 -0.141721,0.0175 -0.200225,0.0264 -0.02916,0.004 -0.05586,0.009 -0.07953,0.0125 0.06404,-0.0191 0.1728,-0.0653 0.255401,-0.17265 z m -0.172945,0.19432 c 0.05916,-0.001 0.128081,-0.004 0.201781,-0.008 0.03683,-0.002 0.07497,-0.004 0.113608,-0.007 0.01686,-0.001 0.03408,-0.003 0.05116,-0.004 l 0.0062,0.13232 0.110894,-0.0162 -0.01545,-0.12454 c 0.02721,-0.003 0.05449,-0.005 0.08134,-0.008 0.0386,-0.003 0.07645,-0.008 0.113137,-0.0123 0.07338,-0.008 0.141721,-0.0175 0.200225,-0.0264 0.117046,-0.0172 0.194618,-0.034 0.194618,-0.034 0,0 -0.07931,-0.003 -0.197548,-3.6e-4 -0.05916,0.001 -0.128081,0.004 -0.201781,0.008 -0.03683,0.002 -0.075,0.004 -0.113608,0.007 -0.02761,0.002 -0.05568,0.004 -0.08369,0.006 l -0.06896,-0.55585 c 0,0 0,-0.15673 -0.02985,-0.17913 -0.01914,-0.0144 -0.02905,0.002 -0.03372,0.0156 -7.24e-4,-1.8e-4 -0.0013,-5.8e-4 -0.0021,-6.5e-4 -0.008,-6.5e-4 -0.01563,0.005 -0.01646,0.0134 -4.34e-4,0.004 -0.04508,0.43037 -0.160643,0.58056 -0.114115,0.14838 -0.287168,0.17334 -0.288904,0.17356 -0.0082,0.001 -0.014,0.009 -0.01288,0.0169 6.88e-4,0.005 0.0041,0.009 0.0085,0.0114 -0.03401,0.006 -0.0534,0.0105 -0.0534,0.0105 0,0 0.07931,0.003 0.197547,2.9e-4"
           style="fill:#000000;fill-opacity:1;fill-rule:nonzero;stroke:none;stroke-width:0.00361809"
           id="path106" />
        <path
           d="m 67.341622,144.57222 -0.101306,0.22291 -0.09118,-0.11147 c 0,0 0.08105,-0.16209 0.08105,-0.19248 z m -2.919871,0.66171 c -0.294078,0.0913 -0.529435,0.16104 -0.713198,0.21195 l 0.118891,-1.55878 c 0.06082,-0.008 0.09667,-0.0132 0.09667,-0.0132 l -0.02391,-0.15536 -0.06107,0.0154 0.0326,-0.42747 c 0.04617,0.28423 0.146352,0.85235 0.254641,1.15873 -0.0148,0.16755 -0.02768,0.3253 -0.03687,0.4554 -0.01462,0.20385 -0.02196,0.33985 -0.02196,0.33985 0,0 0.0092,-0.13593 0.02663,-0.33948 0.01049,-0.12407 0.02471,-0.27339 0.04085,-0.43229 0.0074,0.02 0.01491,0.0391 0.0224,0.0564 0.160209,0.3685 0.288398,0.40855 0.288398,0.40855 0,0 -0.08011,-0.16021 0.05608,-0.35247 0.11643,-0.16437 0.438476,-0.42781 0.9648,-0.55097 9.41e-4,0.0851 2.53e-4,0.18489 -0.0031,0.28482 -0.0044,0.13018 -0.01324,0.26032 -0.02229,0.35772 -0.0077,0.0851 -0.01469,0.14523 -0.01635,0.15916 -0.312494,0.13257 -0.650605,0.2727 -1.003224,0.38214 z m -0.200659,-0.87445 c 0.131735,0.20261 0.131735,0.20261 0.131735,0.20261 0,0 0.131698,-0.18235 0.405262,-0.33435 0.273528,-0.15196 0.567353,-0.20261 0.567353,-0.20261 0,0 -0.536961,0.233 -0.719349,0.39513 -0.182352,0.16209 -0.222874,0.29379 -0.222874,0.29379 l -0.02026,0.10134 c 0,0 -0.253302,-0.2533 -0.334347,-0.922 0,0 0.06078,0.26344 0.192482,0.46609 z m 2.796313,0.618 0.06082,0.10131 -0.303955,0.67883 z m -3.077149,-4.16684 c 0.135172,-0.10012 0.562287,-0.39803 1.03036,-0.53353 0.02815,-0.008 0.05507,-0.0151 0.08184,-0.022 l 0.319911,0.33341 z m 0.097,-1.49438 c 0,0 0.06983,0 0.240675,0 -0.140309,0.003 -0.240313,0.005 -0.240313,0.005 l -0.0045,0.0484 z m 1.18279,0.0157 c 0.0419,0.0508 0.08662,0.10503 0.131336,0.15923 0.01436,0.0171 0.02862,0.0342 0.04291,0.0512 l -0.223453,-0.25106 c 0.0049,-2.2e-4 0.0097,-4.7e-4 0.01462,-7.2e-4 0.01129,0.0135 0.02272,0.0273 0.03459,0.0414 z m 3.431469,3.16221 c 0,0 -0.406565,0.47075 -0.694203,0.80857 -0.04978,-0.0334 -0.255835,-0.18123 -0.87594,-0.72044 -0.06104,-0.0531 -0.122508,-0.10995 -0.183944,-0.16954 0.187309,-0.0287 0.584792,-0.0784 0.840845,-0.0308 0.344442,0.0641 0.712944,0.30442 0.712944,0.30442 0,0 -0.761029,-0.60881 -1.313764,-1.18561 -0.552772,-0.57676 -1.377878,-1.56211 -1.377878,-1.56211 0.06979,0.12663 0.142047,0.36506 0.207968,0.62987 l -0.481929,0.0593 0.586673,0.84736 c -0.311988,-0.39832 -0.529001,-0.71946 -0.529001,-0.71946 3.26e-4,0.003 6.87e-4,0.005 0.001,0.008 l -0.115019,-0.13811 0.474295,-0.0727 -0.01491,-0.0448 -0.493435,0.0765 -0.286046,-0.34353 c 0.474331,-0.10956 0.712293,-0.0166 0.712293,-0.0166 l -0.05224,-0.26123 -0.08521,-0.0957 c -0.01773,-0.024 -0.04059,-0.0558 -0.06903,-0.0926 -0.03235,-0.0417 -0.06936,-0.091 -0.110461,-0.14259 -0.04085,-0.0518 -0.08542,-0.10627 -0.130106,-0.16068 -0.04515,-0.054 -0.09045,-0.10789 -0.134376,-0.15728 -0.0078,-0.009 -0.01545,-0.0173 -0.02319,-0.0258 0.399907,-0.0204 0.799019,-0.0449 0.799019,-0.0449 l 0.02402,0.0881 0.320454,-0.20027 c 0,0 -0.336446,0.048 -0.769025,0.0801 -0.09758,0.007 -0.249069,0.0157 -0.425017,0.0244 -0.0186,-0.0178 -0.03607,-0.0352 -0.05217,-0.0515 -0.07421,-0.0751 -0.12363,-0.12515 -0.12363,-0.12515 0,0 0.01049,0.0142 0.02971,0.0383 0.0195,0.0238 0.04657,0.0587 0.08155,0.0984 0.01147,0.0131 0.02402,0.0271 0.03701,0.0414 -0.603281,0.0297 -1.470067,0.0623 -1.470067,0.0623 0.298421,0.0373 0.353596,0.10927 0.359783,0.119 l -0.130215,1.39792 -0.06028,0.009 0.117443,-1.07185 -0.609503,0.10966 0.494448,-0.10753 -0.861033,0.13832 c 0.04776,-0.0335 0.288434,-0.19773 0.53573,-0.28464 0.276169,-0.097 0.470244,-0.10449 0.470244,-0.10449 0,0 -0.104527,-0.12688 -0.209018,-0.16419 -0.10449,-0.0373 -0.179131,-0.0448 -0.179131,-0.0448 l 0.880751,-0.0746 c 0,0 -0.186584,-0.097 -0.186584,-0.26122 0,-0.16423 0.0373,-0.21647 0.0373,-0.21647 l -1.373355,0.25377 c 0,0 0.08955,0.41051 0.06715,0.66428 -0.01469,0.16661 -0.03256,0.21716 -0.04313,0.23239 l -0.220234,0.0354 c -5.06e-4,1.1e-4 -0.0011,2.2e-4 -0.0016,3.3e-4 -0.01617,0.004 -0.02645,0.0195 -0.02294,0.0357 0.0035,0.0162 0.0195,0.0265 0.03571,0.0229 l 0.146931,-0.0319 -0.04175,0.86762 -0.451429,0.0774 c -4.34e-4,1.1e-4 -9.77e-4,1.8e-4 -0.0014,2.9e-4 -0.01617,0.004 -0.02638,0.0196 -0.02276,0.0358 0.0036,0.0162 0.01961,0.0264 0.03578,0.0228 l 0.438006,-0.0973 -0.02279,0.47292 c 0,0 0.253773,-0.17916 0.440394,-0.27617 0.11444,-0.0595 0.293318,-0.12739 0.414633,-0.17102 l 1.516378,-0.23221 c -0.34636,0.0559 -1.066867,0.1792 -1.274183,0.26886 0,0 -0.0058,0.10188 -0.01462,0.25616 l -1.461962,0.28174 c -2.89e-4,7e-5 -7.24e-4,1.4e-4 -10e-4,2.2e-4 -0.01614,0.004 -0.02627,0.0198 -0.02258,0.0359 0.0037,0.0162 0.01979,0.0263 0.03593,0.0226 l 1.449045,-0.33037 c -1.09e-4,0.002 -2.17e-4,0.004 -3.62e-4,0.006 l -1.066721,0.26484 c 0,0 0.04479,0.62698 0.0075,1.27635 -0.0373,0.64934 -0.13434,0.88821 -0.13434,0.88821 0,0 0.104491,-0.23138 0.440394,-0.47025 0.335867,-0.23883 0.619489,-0.29107 0.619489,-0.29107 l 0.107096,-1.19922 c -0.02435,0.42911 -0.05091,0.90044 -0.05485,0.98275 -0.0075,0.15673 -0.0224,0.38066 -0.0224,0.38066 0,0 0.09704,-0.29857 0.753865,-0.61953 0.656828,-0.32092 0.962882,-0.25377 0.962882,-0.25377 l -0.134267,-1.52915 0.05293,0.0552 c 0.01505,0.14841 0.233692,2.29853 0.295561,2.51508 0.06408,0.22432 0.200262,0.32045 0.384531,0.34447 0.184233,0.024 1.257684,0.20026 1.257684,0.20026 l -0.352474,-0.54473 c 0,0 -0.785053,-0.0801 -0.889182,-0.15218 -0.104165,-0.0721 -0.264374,-0.32046 -0.408555,-0.91324 -0.135714,-0.55788 -0.271356,-1.35672 -0.286878,-1.44898 l 0.08018,0.0836 c 0.09758,0.79923 0.383517,1.81523 0.495063,2.04635 0.112161,0.23232 0.440611,0.25634 0.440611,0.25634 l 1.273712,0.13619 0.201745,0.0971 c -0.10525,0.12363 -0.194581,0.22946 -0.241797,0.28738 -0.146605,0.17997 -0.498138,0.63125 -0.612217,0.778 -0.180687,-0.006 -0.483015,0.0343 -0.845764,0.15127 -0.245307,0.0792 -0.525962,0.20135 -0.831076,0.33077 0.0025,-0.014 0.01288,-0.0735 0.02547,-0.15797 0.01465,-0.0969 0.03101,-0.22664 0.04291,-0.35696 0.0096,-0.10467 0.01617,-0.20938 0.02004,-0.29755 0.0754,-0.0161 0.154565,-0.0294 0.237998,-0.039 0.696917,-0.0801 1.313765,0.31242 1.313765,0.28839 0,-0.024 -0.568764,-0.63284 -0.568764,-0.63284 0,0 -0.480663,-0.016 -0.592824,-0.11216 -0.112124,-0.0961 -0.208257,-0.20829 -0.232317,-0.40855 -0.02402,-0.20026 -0.04002,-0.43258 -0.04002,-0.43258 0,0 -0.672929,0.12016 -1.08948,0.24031 -0.416587,0.12016 -0.696952,0.19227 -0.696952,0.19227 0,0 0.0023,0.0156 0.0065,0.0432 l -0.03582,0.56153 -0.355514,0.0896 0.11795,-0.45671 c 0.14078,-0.0488 0.238432,-0.0725 0.238432,-0.0725 l -0.0478,-0.1554 -0.118456,0.0197 c 0.05528,-0.0156 0.130468,-0.0365 0.219799,-0.0607 0.193242,-0.0525 0.451646,-0.11972 0.711316,-0.18076 0.259526,-0.0608 0.520825,-0.11704 0.716455,-0.15789 0.0979,-0.0204 0.179565,-0.0366 0.236695,-0.0475 0.05691,-0.0106 0.0894,-0.0166 0.0894,-0.0166 l -0.01711,-0.0884 c 0,0 -0.03285,0.008 -0.09031,0.0208 -0.05709,0.0135 -0.138392,0.0332 -0.235682,0.0577 -0.194581,0.0493 -0.452985,0.11636 -0.710702,0.18832 -0.257499,0.0721 -0.513045,0.15026 -0.704008,0.21087 -0.104237,0.033 -0.189045,0.0606 -0.244764,0.079 l -0.139513,0.0233 0.298818,-0.19125 v -0.0837 c 0,0 -0.370529,0.0717 -0.669347,0.37053 -0.298818,0.29881 -0.418323,0.44224 -0.418323,0.44224 0,0 0.179276,-0.70521 0.155361,-1.08771 -0.02388,-0.38247 -0.02388,-0.49003 -0.02388,-0.49003 l -0.322733,0.0478 c 0,0 0.01194,1.09965 0.01194,1.33869 0,0.23905 -0.05973,0.52593 -0.05973,0.52593 0,0 0.274902,-0.26296 0.621515,-0.46616 0.161729,-0.0948 0.333877,-0.16617 0.47151,-0.21538 l -0.11075,0.45175 -1.149612,0.28956 c 0.273853,-0.0534 0.752997,-0.12555 1.122476,-0.17877 l -0.388366,1.58454 0.410075,-1.58765 c 0.153443,-0.022 0.286191,-0.0406 0.375268,-0.0529 l -0.09932,1.55628 c -0.250625,0.0694 -0.404683,0.10337 -0.478601,0.108 -0.128188,0.008 -0.216289,0.008 -0.216289,0.008 0,0 -0.02402,0.0961 0.01603,0.12816 0.04005,0.032 0.152213,0.0481 0.176237,0.10416 0.02402,0.056 0.03206,0.14418 0.03206,0.14418 0,0 0.865157,0.008 1.497997,-0.0881 0.632877,-0.0961 0.825142,-0.10412 1.281745,-0.056 0.456639,0.048 0.777057,0.056 0.809113,0.008 0,0 0.154095,-0.41326 0.318211,-0.742 -0.0049,-0.0294 -0.01085,-0.0587 -0.0182,-0.0859 -0.0028,-0.0103 -0.0059,-0.0204 -0.0092,-0.0293 -0.0031,-0.009 -0.007,-0.0172 -0.0096,-0.0217 -8.33e-4,-0.002 -8.69e-4,-0.001 -0.001,-0.002 -1.09e-4,-2.1e-4 6.51e-4,-1.4e-4 -0.0023,-0.003 l -0.01237,-0.0128 -0.0097,-0.01 c -0.07204,-0.003 -0.148993,-9.8e-4 -0.223635,0.002 -0.0826,0.005 -0.165382,0.0109 -0.247911,0.0208 -0.04132,0.004 -0.08253,0.01 -0.123739,0.0153 -0.04128,0.005 -0.08238,0.0116 -0.123485,0.0183 -0.04117,0.006 -0.08224,0.0131 -0.12316,0.021 -0.04096,0.008 -0.08213,0.0143 -0.12287,0.0234 l -0.122436,0.0256 -0.121894,0.0285 c -0.08144,0.0185 -0.161765,0.0414 -0.242701,0.0623 -0.08032,0.0235 -0.160427,0.0458 -0.241001,0.0703 l -0.241436,0.0719 c -0.322335,0.095 -0.645792,0.18564 -0.970335,0.27208 -0.162271,0.0432 -0.324832,0.0853 -0.487646,0.12634 l -0.244221,0.0613 c -0.04067,0.0104 -0.08166,0.0201 -0.123015,0.0274 -0.04136,0.007 -0.08329,0.0136 -0.125295,0.0111 0.04204,10e-4 0.08361,-0.007 0.124607,-0.0146 0.0411,-0.008 0.08155,-0.0192 0.121894,-0.0307 l 0.242412,-0.0681 c 0.161547,-0.0456 0.322769,-0.0921 0.483666,-0.1398 0.321757,-0.0953 0.642283,-0.19487 0.96129,-0.2986 l 0.23912,-0.0785 c 0.07934,-0.0265 0.160245,-0.0515 0.240386,-0.0774 0.08101,-0.0233 0.161475,-0.0487 0.243244,-0.0696 l 0.1224,-0.0323 0.123232,-0.0294 c 0.04096,-0.0103 0.08253,-0.018 0.123811,-0.0272 0.04125,-0.009 0.08275,-0.0172 0.12439,-0.0248 0.04154,-0.008 0.08314,-0.0157 0.125005,-0.0221 0.04179,-0.007 0.08358,-0.0137 0.12562,-0.0191 0.08387,-0.0124 0.168422,-0.0208 0.253194,-0.0283 0.08564,-0.006 0.168712,-0.0114 0.258657,-0.009 l 0.01986,5.8e-4 0.01617,0.0157 0.02547,0.0248 0.01274,0.0124 c 0.0035,0.003 0.01509,0.0164 0.01889,0.023 0.01,0.0156 0.01603,0.0292 0.02109,0.0422 1.81e-4,4.3e-4 3.26e-4,8.3e-4 4.71e-4,10e-4 0.138319,-0.26347 0.178082,-0.33641 0.178082,-0.33641 l -0.10999,-0.1274 c 0.155976,-0.22573 0.40642,-0.43337 0.40642,-0.43337 v -0.24835 c 0,0 0.84913,-1.05742 0.921238,-1.15355 0.07207,-0.0961 0.120157,-0.17624 0.03206,-0.11216"
           style="fill:#000000;fill-opacity:1;fill-rule:nonzero;stroke:none;stroke-width:0.00361809"
           id="path108" />
        <path
           d="m 62.720236,144.09456 c 0,0 0.06556,0.59004 0.02185,0.89602 -0.04371,0.30595 -0.04371,0.30595 -0.04371,0.30595 l 1.464205,-0.39336 c 0,0 -0.174827,-0.3934 -0.218533,-0.56822 -0.04371,-0.17483 -0.06556,-0.37151 -0.06556,-0.37151 l -1.158259,0.13112"
           style="fill:#000000;fill-opacity:1;fill-rule:nonzero;stroke:none;stroke-width:0.00361809"
           id="path110" />
      </g>
    </g>
    <path
       class="st1"
       d="M 84.292144,140.77357 H 72.564492 l 14.78463,14.78901 2.918016,3.05789 H 70.785881 v 13.45466 h 31.347879 v -13.62145 l -8.920801,-8.78447 z"
       id="path2076"
       style="fill:#595959;fill-opacity:1;stroke-width:0.277947" />
  </g>
</svg>
