<?xml version="1.0" standalone="no"?>
<!DOCTYPE svg PUBLIC "-//W3C//DTD SVG 20010904//EN" "http://www.w3.org/TR/2001/REC-SVG-20010904/DTD/svg10.dtd">
<!-- Created using Krita: https://krita.org -->
<svg xmlns="http://www.w3.org/2000/svg" 
    xmlns:xlink="http://www.w3.org/1999/xlink"
    xmlns:krita="http://krita.org/namespaces/svg/krita"
    xmlns:sodipodi="http://sodipodi.sourceforge.net/DTD/sodipodi-0.dtd"
    width="75pt"
    height="75pt"
    viewBox="0 0 75 75">
<defs/>
<text id="shape0" krita:useRichText="true" krita:textVersion="2" transform="translate(7.66875, 60.925)" fill="#000000" stroke-opacity="0" stroke="#000000" stroke-width="0" stroke-linecap="square" stroke-linejoin="bevel" font-family="Clarity City" font-stretch="normal" letter-spacing="0" text-anchor="middle" word-spacing="0"><tspan x="29.87109375">Cloud Native</tspan><tspan x="29.87109375" dy="9.75" fill="#0086ff" font-weight="700">Lorient</tspan></text><g id="group0" transform="matrix(0.1 0 0 0.1 12.4 1.9)" fill="none">
  <path id="shape01" transform="translate(166.4, -2.22044604925031e-16)" fill="#93eaff" stroke-opacity="0" stroke="#000000" stroke-width="0" stroke-linecap="square" stroke-linejoin="bevel" d="M0 71.8L0.2 72L62.7 72L62.5 71.8L167.2 71.8L167.2 0L0 0Z" sodipodi:nodetypes="cccccccc"/>
  <path id="shape1" transform="translate(171.4, 88.552)" fill="#0086ff" stroke-opacity="0" stroke="#000000" stroke-width="0" stroke-linecap="square" stroke-linejoin="bevel" d="M6.2 24.448L12.9 3.848C13.4 2.248 12.6 0.648 11 0.148C9.4 -0.352 7.8 0.448 7.3 2.048L0 24.548C0.2 24.548 0.5 24.548 0.7 24.548L6.2 24.548Z" sodipodi:nodetypes="cccccccc"/>
  <path id="shape2" transform="translate(227.4, 88.2520000000001)" fill="#0086ff" stroke-opacity="0" stroke="#000000" stroke-width="0" stroke-linecap="square" stroke-linejoin="bevel" d="M14 3.848C14.5 2.248 13.7 0.648 12.1 0.148C10.5 -0.352 8.9 0.448 8.4 2.048L0 28.048L5.6 30.048Z" sodipodi:nodetypes="cccccc"/>
  <path id="shape3" transform="translate(227.8, 122.7)" fill="#0086ff" stroke-opacity="0" stroke="#000000" stroke-width="0" stroke-linecap="square" stroke-linejoin="bevel" d="M0.5 0.2C0.6 0.2 0.7 0.2 0.8 0.3L0 0C0.1 0.1 0.3 0.2 0.5 0.2Z" sodipodi:nodetypes="cccc"/>
  <path id="shape4" transform="translate(207.8, 113)" fill="#93eaff" stroke-opacity="0" stroke="#000000" stroke-width="0" stroke-linecap="square" stroke-linejoin="bevel" d="M20 9.7C18.8 9 18.1 7.6 18.6 6.2L19.6 3.3L10.9 0.2C10.6 0.1 10.2 0 9.9 0L0 0L5.9 5.9L9.4 5.9Z" sodipodi:nodetypes="ccccccccc"/>
  <path id="shape5" transform="translate(170.561126882949, 113)" fill="#93eaff" stroke-opacity="0" stroke="#000000" stroke-width="0" stroke-linecap="square" stroke-linejoin="bevel" d="M2.03887 5.8C3.63887 6.3 5.23887 5.5 5.73887 3.9L7.03887 0L1.53887 0C1.33887 0 1.03887 0 0.838873 0L0.138873 2C-0.361127 3.6 0.538873 5.3 2.03887 5.8Z" sodipodi:nodetypes="ccccccc"/>
  <path id="shape6" transform="translate(226.177485012535, 116.2)" fill="#93eaff" stroke-opacity="0" stroke="#000000" stroke-width="0" stroke-linecap="square" stroke-linejoin="bevel" d="M1.62251 6.5L2.42251 6.8C3.92251 7.1 5.42251 6.3 5.82251 4.8L6.72251 2L1.12251 0L0.122515 2.9C-0.277485 4.4 0.322515 5.9 1.62251 6.5Z" sodipodi:nodetypes="ccccccc"/>
  <g id="group1" fill="none">
   <path id="shape7" transform="translate(429, 167)" fill="#ffffff" stroke-opacity="0" stroke="#000000" stroke-width="0" stroke-linecap="square" stroke-linejoin="bevel" d="M0 0C2.7 0 71 0 71 0L71 0Z" sodipodi:nodetypes="cccc"/>
   <path id="shape8" transform="translate(0, 333)" fill="#0086ff" stroke-opacity="0" stroke="#000000" stroke-width="0" stroke-linecap="square" stroke-linejoin="bevel" d="M71.1 95.2C71.1 95.2 71.1 95.1 71.1 95L71 95L71 0L0 0L0 167L166.4 167L166.4 95.2Z" sodipodi:nodetypes="ccccccccc"/>
   <path id="shape9" transform="translate(333.6, 333.1)" fill="#0086ff" stroke-opacity="0" stroke="#000000" stroke-width="0" stroke-linecap="square" stroke-linejoin="bevel" d="M95.4 94.9L95.3 94.9L95.3 95.1L0 95.1L0 166.9L166.4 166.9L166.4 0L95.4 0Z" sodipodi:nodetypes="ccccccccc"/>
   <path id="shape10" fill="#0086ff" stroke-opacity="0" stroke="#000000" stroke-width="0" stroke-linecap="square" stroke-linejoin="bevel" d="M71 167L71 72L71.1 72L71.1 71.8L166.4 71.8L166.4 0L0 0L0 167Z" sodipodi:nodetypes="ccccccccc"/>
   <path id="shape11" transform="translate(333.6, -2.22044604925031e-16)" fill="#0086ff" stroke-opacity="0" stroke="#000000" stroke-width="0" stroke-linecap="square" stroke-linejoin="bevel" d="M0 0L0 71.8L95.3 71.8L95.3 72L95.4 72L95.4 167L166.4 167L166.4 0Z" sodipodi:nodetypes="ccccccccc"/>
   <path id="shape12" transform="translate(166.4, 428)" fill="#93eaff" stroke-opacity="0" stroke="#000000" stroke-width="0" stroke-linecap="square" stroke-linejoin="bevel" d="M103.7 0L103.9 0.2L0 0.2L0 72L167.2 72L167.2 0Z" sodipodi:nodetypes="ccccccc"/>
   <path id="shape13" transform="translate(429, 167)" fill="#93eaff" stroke-opacity="0" stroke="#000000" stroke-width="0" stroke-linecap="square" stroke-linejoin="bevel" d="M0 166L71 166L71 0C71 0 2.7 0 0 0Z" sodipodi:nodetypes="ccccc"/>
   <rect id="shape14" transform="translate(429, 333)" fill="#93eaff" stroke-opacity="0" stroke="#000000" stroke-width="0" stroke-linecap="square" stroke-linejoin="bevel" width="71" height="0.1"/>
   <path id="shape15" transform="translate(233.8, 391.1)" fill="#ffffff" stroke-opacity="0" stroke="#000000" stroke-width="0" stroke-linecap="square" stroke-linejoin="bevel" d="M0 0L3 2.9L3.6 2.5Z" sodipodi:nodetypes="cccc"/>
   <path id="shape16" transform="translate(428.125, 333)" fill="#ffffff" stroke-opacity="0" stroke="#000000" stroke-width="0" stroke-linecap="square" stroke-linejoin="bevel" d="M0.075 0.1L0.875 0.1L0.875 0L0.075 0.1C-0.025 0 -0.025 0.1 0.075 0.1Z" sodipodi:nodetypes="ccccc"/>
   <path id="shape17" transform="translate(129.853226851715, 293.2)" fill="#0086ff" stroke-opacity="0" stroke="#000000" stroke-width="0" stroke-linecap="square" stroke-linejoin="bevel" d="M0.546773 14.4C-1.35323 20.4 1.84677 26.8 7.84677 28.7C9.44677 29.2 11.0468 28.4 11.5468 26.8C12.0468 25.2 11.2468 23.6 9.64677 23.1C6.74677 22.2 5.24677 19.1 6.14677 16.2L9.84677 4.7L5.14677 0Z" sodipodi:nodetypes="cccccccc"/>
   <path id="shape18" transform="translate(135.1, 275.852)" fill="#0086ff" stroke-opacity="0" stroke="#000000" stroke-width="0" stroke-linecap="square" stroke-linejoin="bevel" d="M8.7 0.148C7.1 -0.352 5.5 0.448 5 2.048L0 17.348L4.7 22.048L10.6 3.848C11.1 2.348 10.2 0.648 8.7 0.148Z" sodipodi:nodetypes="cccccc"/>
   <path id="shape19" transform="translate(116.353226851715, 280)" fill="#0086ff" stroke-opacity="0" stroke="#000000" stroke-width="0" stroke-linecap="square" stroke-linejoin="bevel" d="M4.94677 1.2L0.546773 14.8C-1.35323 20.8 1.84677 27.2 7.84677 29.1C9.44677 29.6 11.0468 28.8 11.5468 27.2C12.0468 25.6 11.2468 24 9.64677 23.5C6.74677 22.6 5.24677 19.5 6.14677 16.6L10.0468 4.5L5.54677 0C5.24677 0.4 5.04677 0.8 4.94677 1.2Z" sodipodi:nodetypes="ccccccccc"/>
   <path id="shape20" transform="translate(121.9, 279.14307812367)" fill="#0086ff" stroke-opacity="0" stroke="#000000" stroke-width="0" stroke-linecap="square" stroke-linejoin="bevel" d="M3.1 0.156922C2 -0.243078 0.8 0.156922 0 0.956922L4.5 5.45692L5 3.95692C5.5 2.35692 4.6 0.656922 3.1 0.156922Z" sodipodi:nodetypes="ccccc"/>
   <path id="shape21" transform="translate(128.3, 186.3)" fill="#0086ff" stroke-opacity="0" stroke="#000000" stroke-width="0" stroke-linecap="square" stroke-linejoin="bevel" d="M17.6 23.6C17.8 23.3 18 23 18.1 22.7L25.5 0L19.3 0L12.7 20.4L0 36.9L4.2 41.1Z" sodipodi:nodetypes="cccccccc"/>
   <path id="shape22" transform="translate(103.438699250368, 266.5)" fill="#0086ff" stroke-opacity="0" stroke="#000000" stroke-width="0" stroke-linecap="square" stroke-linejoin="bevel" d="M2.1613 8.5L5.4613 10.9C6.7613 11.9 7.0613 13.7 6.1613 15C5.1613 16.3 3.3613 16.6 2.0613 15.7L0.3613 14.5C-1.1387 20.3 2.1613 26.3 7.8613 28.1C9.4613 28.6 11.0613 27.8 11.5613 26.2C12.0613 24.6 11.2613 23 9.6613 22.5C6.7613 21.6 5.2613 18.5 6.1613 15.6L9.6613 4.7L4.9613 0Z" sodipodi:nodetypes="cccccccccccc"/>
   <path id="shape23" transform="translate(127.7, 223.3)" fill="#0086ff" stroke-opacity="0" stroke="#000000" stroke-width="0" stroke-linecap="square" stroke-linejoin="bevel" d="M3.1 6.4L4.8 4.2L0.6 0L0 0.8L2.4 2.5C3.5 3.4 3.8 5.1 3.1 6.4Z" sodipodi:nodetypes="cccccc"/>
   <path id="shape24" transform="translate(108.3, 228.8)" fill="#0086ff" stroke-opacity="0" stroke="#000000" stroke-width="0" stroke-linecap="square" stroke-linejoin="bevel" d="M22 1.5C21 2.5 19.4 2.6 18.2 1.8L15.7 0L10.1 7.3C9.9 7.6 9.7 7.9 9.6 8.2L0 37.7L4.7 42.4L15.1 10.5Z" sodipodi:nodetypes="ccccccccc"/>
   <path id="shape25" transform="translate(209.5, 180.4)" fill="#0086ff" stroke-opacity="0" stroke="#000000" stroke-width="0" stroke-linecap="square" stroke-linejoin="bevel" d="M0 0C0.1 0 0.2 0 0.3 0C0.2 0 0.1 0 0 0Z" sodipodi:nodetypes="ccc"/>
   <path id="shape26" transform="translate(211.9, 181.9)" fill="#0086ff" stroke-opacity="0" stroke="#000000" stroke-width="0" stroke-linecap="square" stroke-linejoin="bevel" d="M0 0C0 0.1 0.1 0.2 0.1 0.2C0.1 0.1 0 0.1 0 0Z" sodipodi:nodetypes="ccc"/>
   <path id="shape27" transform="translate(212.1, 182.4)" fill="#0086ff" stroke-opacity="0" stroke="#000000" stroke-width="0" stroke-linecap="square" stroke-linejoin="bevel" d="M0 0C0 0.1 0.1 0.2 0.1 0.3C0.1 0.2 0 0.1 0 0Z" sodipodi:nodetypes="ccc"/>
   <path id="shape28" transform="translate(188.459046007272, 184)" fill="#0086ff" stroke-opacity="0" stroke="#000000" stroke-width="0" stroke-linecap="square" stroke-linejoin="bevel" d="M20.841 2.3L16.741 2.3L0.140954 53.4C-0.159046 54.3 0.040954 55.2 0.540954 56L11.041 71.1L11.441 91.7L17.441 96.1L16.841 70.1C16.841 69.5 16.641 69 16.341 68.5L6.14095 53.8L15.141 26.1L13.741 26.6C13.441 26.7 13.041 26.8 12.741 26.8C11.541 26.8 10.341 26 9.94095 24.8C9.44095 23.3 10.241 21.6 11.741 21L17.341 19L23.441 0.2C23.441 0.1 23.441 0.1 23.441 0C23.441 1.4 22.241 2.3 20.841 2.3Z" sodipodi:nodetypes="ccccccccccccccccccc"/>
   <path id="shape29" transform="translate(212.3, 183.5)" fill="#0086ff" stroke-opacity="0" stroke="#000000" stroke-width="0" stroke-linecap="square" stroke-linejoin="bevel" d="M0 0C0 0.1 0 0.2 0 0.3C0 0.2 0 0.1 0 0Z" sodipodi:nodetypes="ccc"/>
   <path id="shape30" transform="translate(212.3, 182.9)" fill="#0086ff" stroke-opacity="0" stroke="#000000" stroke-width="0" stroke-linecap="square" stroke-linejoin="bevel" d="M0 0C0 0.1 0 0.2 0 0.3C0 0.2 0 0.1 0 0Z" sodipodi:nodetypes="ccc"/>
   <path id="shape31" transform="translate(210.2, 180.6)" fill="#0086ff" stroke-opacity="0" stroke="#000000" stroke-width="0" stroke-linecap="square" stroke-linejoin="bevel" d="M0.1 0C0.1 0 0 0 0 0C0.1 0 0.2 0 0.2 0.1C0.1 0 0.1 0 0.1 0Z" sodipodi:nodetypes="cccc"/>
   <path id="shape32" transform="translate(210.7, 180.7)" fill="#0086ff" stroke-opacity="0" stroke="#000000" stroke-width="0" stroke-linecap="square" stroke-linejoin="bevel" d="M0 0C0.1 0 0.2 0.1 0.2 0.1C0.1 0.1 0 0.1 0 0Z" sodipodi:nodetypes="ccc"/>
   <path id="shape33" transform="translate(211.1, 181)" fill="#0086ff" stroke-opacity="0" stroke="#000000" stroke-width="0" stroke-linecap="square" stroke-linejoin="bevel" d="M0 0C0.1 0.1 0.1 0.1 0.2 0.2C0.2 0.1 0.1 0.1 0 0Z" sodipodi:nodetypes="ccc"/>
   <path id="shape34" transform="translate(211.5, 181.4)" fill="#0086ff" stroke-opacity="0" stroke="#000000" stroke-width="0" stroke-linecap="square" stroke-linejoin="bevel" d="M0 0C0.1 0.1 0.1 0.1 0.2 0.2C0.2 0.2 0.1 0.1 0 0Z" sodipodi:nodetypes="ccc"/>
   <path id="shape35" transform="translate(179.6, 265)" fill="#0086ff" stroke-opacity="0" stroke="#000000" stroke-width="0" stroke-linecap="square" stroke-linejoin="bevel" d="M0.2 0C0.1 0.1 0.1 0.2 0 0.3C0.1 0.2 0.1 0.1 0.2 0Z" sodipodi:nodetypes="ccc"/>
   <path id="shape36" transform="translate(180.4, 264.1)" fill="#0086ff" stroke-opacity="0" stroke="#000000" stroke-width="0" stroke-linecap="square" stroke-linejoin="bevel" d="M0.2 0C0.1 0.1 0 0.1 0 0.2C0 0.2 0.1 0.1 0.2 0Z" sodipodi:nodetypes="ccc"/>
   <path id="shape37" transform="translate(166.4, 265.5)" fill="#0086ff" stroke-opacity="0" stroke="#000000" stroke-width="0" stroke-linecap="square" stroke-linejoin="bevel" d="M13.1 0C13.1 0.1 13.1 0.1 13 0.1L13 0.1L0 40.3C0 45.6 0 50.3 0 53.7L1.5 54.8L17.4 5.8L14.1 3.4C13 2.7 12.6 1.2 13.1 0Z" sodipodi:nodetypes="ccccccccc"/>
   <path id="shape38" transform="translate(179.9, 264.6)" fill="#0086ff" stroke-opacity="0" stroke="#000000" stroke-width="0" stroke-linecap="square" stroke-linejoin="bevel" d="M0 0.2C0.1 0.1 0.1 0 0.2 0C0.2 0 0.1 0.1 0 0.2Z" sodipodi:nodetypes="ccc"/>
   <path id="shape39" transform="translate(143.253226851715, 306.6)" fill="#0086ff" stroke-opacity="0" stroke="#000000" stroke-width="0" stroke-linecap="square" stroke-linejoin="bevel" d="M18.6468 13.4L18.6468 13.4L16.5468 19.8C15.6468 22.7 12.5468 24.2 9.64677 23.3C6.74677 22.4 5.24677 19.3 6.14677 16.4L9.94677 4.7L5.24677 0L0.546773 14.6C-1.35323 20.6 1.84677 27 7.84677 28.9C13.8468 30.8 20.2468 27.6 22.1468 21.6L22.7468 19.6L19.4468 17.2C18.2468 16.4 17.9468 14.7 18.6468 13.4Z" sodipodi:nodetypes="ccccccccccccc"/>
   <path id="shape40" transform="translate(181.9, 263.625)" fill="#0086ff" stroke-opacity="0" stroke="#000000" stroke-width="0" stroke-linecap="square" stroke-linejoin="bevel" d="M0 0.075C0.1 0.075 0.2 0.075 0.3 0.075C0.2 -0.025 0.1 -0.025 0 0.075Z" sodipodi:nodetypes="ccc"/>
   <path id="shape41" transform="translate(180.8, 263.9)" fill="#0086ff" stroke-opacity="0" stroke="#000000" stroke-width="0" stroke-linecap="square" stroke-linejoin="bevel" d="M0.3 0C0.2 0 0.1 0.1 0 0.1C0.1 0.1 0.2 0 0.3 0Z" sodipodi:nodetypes="ccc"/>
   <path id="shape42" transform="translate(183.1, 263.7)" fill="#0086ff" stroke-opacity="0" stroke="#000000" stroke-width="0" stroke-linecap="square" stroke-linejoin="bevel" d="M0 0C0.1 0 0.2 0.1 0.2 0.1C0.2 0.1 0.1 0.1 0.1 0C0 0.1 0 0.1 0 0Z" sodipodi:nodetypes="cccc"/>
   <path id="shape43" transform="translate(183.6, 264)" fill="#0086ff" stroke-opacity="0" stroke="#000000" stroke-width="0" stroke-linecap="square" stroke-linejoin="bevel" d="M0.3 0.1C0.2 0 0.1 0 0 0C0.1 0 0.2 0.1 0.3 0.1Z" sodipodi:nodetypes="ccc"/>
   <path id="shape44" transform="translate(181.3, 263.7)" fill="#0086ff" stroke-opacity="0" stroke="#000000" stroke-width="0" stroke-linecap="square" stroke-linejoin="bevel" d="M0.3 0C0.2 0 0.1 0 0 0.1C0.1 0 0.2 0 0.3 0Z" sodipodi:nodetypes="ccc"/>
   <path id="shape45" transform="translate(182.5, 263.655555511112)" fill="#0086ff" stroke-opacity="0" stroke="#000000" stroke-width="0" stroke-linecap="square" stroke-linejoin="bevel" d="M0.3 0.0444444C0.2 0.0444444 0.1 0.0444444 0 0.0444444C0.1 -0.0555556 0.2 0.0444444 0.3 0.0444444Z" sodipodi:nodetypes="ccc"/>
   <path id="shape46" transform="translate(161.9, 305.8)" fill="#0086ff" stroke-opacity="0" stroke="#000000" stroke-width="0" stroke-linecap="square" stroke-linejoin="bevel" d="M0 14.2C0.1 14.1 0.1 14 0.2 13.9C1.2 12.6 3 12.3 4.3 13.2L4.5 13.4C4.5 10 4.5 5.3 4.5 0Z" sodipodi:nodetypes="cccccc"/>
   <path id="shape47" transform="translate(148.5, 272.552)" fill="#0086ff" stroke-opacity="0" stroke="#000000" stroke-width="0" stroke-linecap="square" stroke-linejoin="bevel" d="M16 3.848C16.5 2.248 15.7 0.648 14.1 0.148C12.5 -0.352 10.9 0.448 10.4 2.048L0 34.048L4.7 38.748Z" sodipodi:nodetypes="cccccc"/>
   <path id="shape48" transform="translate(281.5, 372.811160388007)" fill="#93eaff" stroke-opacity="0" stroke="#000000" stroke-width="0" stroke-linecap="square" stroke-linejoin="bevel" d="M5.3 8.58884C7.3 7.78884 9.1 6.48884 10.4 4.68884C11.4 3.38884 11.1 1.48884 9.7 0.588839C8.4 -0.411161 6.5 -0.111161 5.6 1.28884C4.3 3.08884 2.1 3.88884 0 3.38884C2.7 6.08884 4.4 7.78884 4.4 7.78884Z" sodipodi:nodetypes="ccccccc"/>
   <path id="shape49" transform="translate(249.511160388007, 356.311160388007)" fill="#93eaff" stroke-opacity="0" stroke="#000000" stroke-width="0" stroke-linecap="square" stroke-linejoin="bevel" d="M4.68884 0.588839C3.38884 -0.411161 1.48884 -0.111161 0.588839 1.28884C-0.411161 2.58884 -0.111161 4.48884 1.28884 5.38884L26.4888 23.6888C29.6888 26.0888 33.7888 26.3888 37.2888 25.0888L36.3888 24.2888C36.3888 24.2888 34.6888 22.5888 31.9888 19.8888C31.2888 19.6888 30.5888 19.3888 29.9888 18.9888Z" sodipodi:nodetypes="ccccccccc"/>
   <path id="shape50" transform="translate(246.911160388007, 375.311160388007)" fill="#93eaff" stroke-opacity="0" stroke="#000000" stroke-width="0" stroke-linecap="square" stroke-linejoin="bevel" d="M27.9888 7.08884C26.6888 6.08884 24.7888 6.38884 23.8888 7.78884C22.0888 10.1888 18.6888 10.7888 16.2888 8.98884L4.68884 0.588839C3.38884 -0.411161 1.48884 -0.111161 0.588839 1.28884C-0.411161 2.58884 -0.111161 4.48884 1.28884 5.38884L12.8888 13.7888C17.9888 17.4888 25.0888 16.3888 28.7888 11.2888C29.6888 9.88884 29.3888 7.98884 27.9888 7.08884Z" sodipodi:nodetypes="ccccccccc"/>
   <path id="shape51" transform="translate(166, 320.3)" fill="#93eaff" stroke-opacity="0" stroke="#000000" stroke-width="0" stroke-linecap="square" stroke-linejoin="bevel" d="M10.9 13.9L9.8 12.7L19.4 12.7L1.9 0L0 6Z" sodipodi:nodetypes="cccccc"/>
   <path id="shape52" transform="translate(199.1, 359.3)" fill="#93eaff" stroke-opacity="0" stroke="#000000" stroke-width="0" stroke-linecap="square" stroke-linejoin="bevel" d="M2.5 0.6L0 2.4L5.2 10C5.4 10.3 5.6 10.5 5.9 10.7L34.8 31.7L3.1 0C2.9 0.3 2.7 0.5 2.5 0.6Z" sodipodi:nodetypes="ccccccc"/>
   <path id="shape53" transform="translate(187.2, 344.4)" fill="#93eaff" stroke-opacity="0" stroke="#000000" stroke-width="0" stroke-linecap="square" stroke-linejoin="bevel" d="M0 0L8.5 12.5L10.8 10.8Z" sodipodi:nodetypes="cccc"/>
   <path id="shape54" transform="translate(202.1, 356.4)" fill="#93eaff" stroke-opacity="0" stroke="#000000" stroke-width="0" stroke-linecap="square" stroke-linejoin="bevel" d="M0 3L31.7 34.7L35.2 37.3L38.5 34.9C39.8 33.9 41.7 34.2 42.6 35.6C43.6 36.9 43.3 38.8 41.9 39.7L40.2 40.9C45.2 44.1 51.9 42.9 55.5 38C56.5 36.7 56.2 34.8 54.8 33.9C53.5 32.9 51.6 33.2 50.7 34.6C48.9 37 45.5 37.6 43.1 35.8L6.7 9.3L0.3 0C0.9 0.9 0.7 2.1 0 3Z" sodipodi:nodetypes="cccccccccccccc"/>
   <path id="shape55" transform="translate(175.7, 333.1)" fill="#93eaff" stroke-opacity="0" stroke="#000000" stroke-width="0" stroke-linecap="square" stroke-linejoin="bevel" d="M1.2 1.1L7.6 5.8L11.4 11.4L22.2 22.2L22.3 22.1C23.5 21.2 25.2 21.4 26.2 22.5L12.1 2C11.9 1.7 11.7 1.5 11.4 1.3L9.6 0L0 0Z" sodipodi:nodetypes="ccccccccccc"/>
   <path id="shape56" transform="translate(161.528095559099, 319.2)" fill="#93eaff" stroke-opacity="0" stroke="#000000" stroke-width="0" stroke-linecap="square" stroke-linejoin="bevel" d="M4.8719 5.3L0.371904 0.8C-0.328096 2.1 -0.0280955 3.8 1.1719 4.6L4.4719 7L6.3719 1.1L4.8719 0C4.8719 3.3 4.8719 5.3 4.8719 5.3Z" sodipodi:nodetypes="ccccccc"/>
   <path id="shape57" transform="translate(161.9, 318.482675378616)" fill="#93eaff" stroke-opacity="0" stroke="#000000" stroke-width="0" stroke-linecap="square" stroke-linejoin="bevel" d="M0.2 1.21732C0.1 1.31732 0.1 1.41732 0 1.51732L4.5 6.01732C4.5 6.01732 4.5 4.01732 4.5 0.717325L4.3 0.517325C3 -0.382675 1.1 -0.0826754 0.2 1.21732Z" sodipodi:nodetypes="cccccc"/>
   <path id="shape58" transform="translate(83.3111603880073, 261.711160388007)" fill="#93eaff" stroke-opacity="0" stroke="#000000" stroke-width="0" stroke-linecap="square" stroke-linejoin="bevel" d="M22.2888 13.2888L4.68884 0.588839C3.38884 -0.411161 1.48884 -0.111161 0.588839 1.28884C-0.411161 2.58884 -0.111161 4.48884 1.28884 5.38884L20.3888 19.2888C20.4888 19.0888 20.4888 18.7888 20.5888 18.5888Z" sodipodi:nodetypes="ccccccc"/>
   <path id="shape59" transform="translate(103.6, 275)" fill="#93eaff" stroke-opacity="0" stroke="#000000" stroke-width="0" stroke-linecap="square" stroke-linejoin="bevel" d="M5.9 6.5C6.9 5.2 6.6 3.3 5.2 2.4L1.9 0L0.2 5.2C0.1 5.4 0.1 5.7 0 5.9L1.7 7.1C3.1 8.2 4.9 7.9 5.9 6.5Z" sodipodi:nodetypes="ccccccc"/>
   <path id="shape60" transform="translate(100.711160388007, 207.311160388007)" fill="#93eaff" stroke-opacity="0" stroke="#000000" stroke-width="0" stroke-linecap="square" stroke-linejoin="bevel" d="M4.68884 0.588839C3.38884 -0.411161 1.48884 -0.111161 0.588839 1.28884C-0.411161 2.58884 -0.111161 4.48884 1.28884 5.38884L23.3888 21.3888L26.9888 16.6888Z" sodipodi:nodetypes="cccccc"/>
   <path id="shape61" transform="translate(130.2, 229.6)" fill="#93eaff" stroke-opacity="0" stroke="#000000" stroke-width="0" stroke-linecap="square" stroke-linejoin="bevel" d="M0.4 0.3C0.5 0.2 0.5 0.1 0.5 0L0 0.6C0.2 0.6 0.3 0.4 0.4 0.3Z" sodipodi:nodetypes="cccc"/>
   <path id="shape62" transform="translate(124, 224.1)" fill="#93eaff" stroke-opacity="0" stroke="#000000" stroke-width="0" stroke-linecap="square" stroke-linejoin="bevel" d="M6.3 6.2L6.8 5.6C7.6 4.3 7.2 2.6 6 1.7L3.6 0L0 4.7L2.5 6.5C3.7 7.3 5.3 7.2 6.3 6.2Z" sodipodi:nodetypes="ccccccc"/>
   <path id="shape63" transform="translate(181.1, 263.8)" fill="#93eaff" stroke-opacity="0" stroke="#000000" stroke-width="0" stroke-linecap="square" stroke-linejoin="bevel" d="M0.3 0C0.2 0 0.1 0.1 0 0.1C0.1 0 0.2 0 0.3 0Z" sodipodi:nodetypes="ccc"/>
   <path id="shape64" transform="translate(180.2, 264.3)" fill="#93eaff" stroke-opacity="0" stroke="#000000" stroke-width="0" stroke-linecap="square" stroke-linejoin="bevel" d="M0 0.2C0.1 0.1 0.1 0.1 0.2 0C0.1 0.1 0 0.1 0 0.2Z" sodipodi:nodetypes="ccc"/>
   <path id="shape65" transform="translate(182.2, 263.6)" fill="#93eaff" stroke-opacity="0" stroke="#000000" stroke-width="0" stroke-linecap="square" stroke-linejoin="bevel" d="M0 0C0.1 0 0.2 0 0.3 0C0.2 0 0.1 0 0 0Z" sodipodi:nodetypes="ccc"/>
   <path id="shape66" transform="translate(181.6, 263.7)" fill="#93eaff" stroke-opacity="0" stroke="#000000" stroke-width="0" stroke-linecap="square" stroke-linejoin="bevel" d="M0.3 0C0.2 0 0.1 0 0 0C0.1 0 0.2 0 0.3 0Z" sodipodi:nodetypes="ccc"/>
   <path id="shape67" transform="translate(180.6, 264)" fill="#93eaff" stroke-opacity="0" stroke="#000000" stroke-width="0" stroke-linecap="square" stroke-linejoin="bevel" d="M0.2 0C0.1 0 0 0.1 0 0.1C0.1 0.1 0.2 0 0.2 0Z" sodipodi:nodetypes="ccc"/>
   <path id="shape68" transform="translate(179.8, 264.8)" fill="#93eaff" stroke-opacity="0" stroke="#000000" stroke-width="0" stroke-linecap="square" stroke-linejoin="bevel" d="M0 0.2C0 0.1 0.1 0.1 0.1 0C0.1 0 0 0.1 0 0.1C0 0.1 0 0.1 0 0.2Z" sodipodi:nodetypes="cccc"/>
   <path id="shape69" transform="translate(183.3, 263.9)" fill="#93eaff" stroke-opacity="0" stroke="#000000" stroke-width="0" stroke-linecap="square" stroke-linejoin="bevel" d="M0.3 0.1C0.2 0.1 0.1 0 0 0C0.1 0 0.2 0 0.3 0.1Z" sodipodi:nodetypes="ccc"/>
   <path id="shape70" transform="translate(179.5, 265.2)" fill="#93eaff" stroke-opacity="0" stroke="#000000" stroke-width="0" stroke-linecap="square" stroke-linejoin="bevel" d="M0.1 0C0.1 0.1 0 0.2 0 0.3C0.1 0.2 0.1 0.1 0.1 0Z" sodipodi:nodetypes="ccc"/>
   <path id="shape71" transform="translate(182.8, 263.6)" fill="#93eaff" stroke-opacity="0" stroke="#000000" stroke-width="0" stroke-linecap="square" stroke-linejoin="bevel" d="M0.3 0.1C0.2 0.1 0.1 0 0 0C0.1 0.1 0.2 0.1 0.3 0.1Z" sodipodi:nodetypes="ccc"/>
   <path id="shape72" transform="translate(183.9, 264.1)" fill="#93eaff" stroke-opacity="0" stroke="#000000" stroke-width="0" stroke-linecap="square" stroke-linejoin="bevel" d="M64.5 28.1C63.9 27.9 63.4 27.9 62.8 28.1L45.7 33.2L22.1 16.1L22.1 17.6C22.1 17.9 22.1 18.3 22 18.6C21.6 19.8 20.5 20.6 19.3 20.6C17.7 20.6 16.3 19.3 16.3 17.7L16.2 11.7L0.2 0.1C0.2 0.1 0.1 0 0.1 0C1.2 0.7 1.7 2.1 1.3 3.4L0 7.3L43.5 38.9C44.2 39.4 45.2 39.6 46.1 39.3L63.7 34L83.5 40L89.5 35.6Z" sodipodi:nodetypes="ccccccccccccccccccc"/>
   <path id="shape73" transform="translate(199.9, 275.8)" fill="#93eaff" stroke-opacity="0" stroke="#000000" stroke-width="0" stroke-linecap="square" stroke-linejoin="bevel" d="M0.2 6C0.2 7.6 1.6 8.9 3.2 8.9C4.5 8.9 5.6 8 5.9 6.9C6 6.6 6.1 6.3 6 5.9L6 4.4L0 0Z" sodipodi:nodetypes="ccccccc"/>
   <path id="shape74" transform="translate(179.287168563205, 263.7)" fill="#93eaff" stroke-opacity="0" stroke="#000000" stroke-width="0" stroke-linecap="square" stroke-linejoin="bevel" d="M4.61283 0.4C4.51283 0.3 4.41283 0.3 4.31283 0.3C4.21283 0.3 4.11283 0.2 4.01283 0.2C3.91283 0.2 3.81283 0.1 3.81283 0.1C3.71283 0.1 3.61283 0 3.51283 0C3.41283 0 3.31283 0 3.21283 0C3.11283 0 3.01283 0 2.91283 0C2.81283 0 2.71283 0 2.61283 0C2.51283 0 2.41283 0 2.31283 0C2.21283 0 2.11283 0 2.01283 0.1C1.91283 0.1 1.81283 0.2 1.71283 0.2C1.61283 0.2 1.51283 0.3 1.41283 0.3C1.31283 0.3 1.21283 0.4 1.21283 0.4C1.11283 0.5 1.01283 0.5 1.01283 0.6C0.912832 0.7 0.912832 0.7 0.812832 0.8C0.712832 0.9 0.612832 1 0.612832 1C0.512832 1.1 0.512832 1.1 0.512832 1.2C0.412832 1.3 0.412832 1.4 0.312832 1.5C0.312832 1.6 0.212832 1.7 0.212832 1.8C-0.287168 3 0.112832 4.4 1.21283 5.3L4.51283 7.7L5.81283 3.8C6.21283 2.5 5.71283 1.1 4.61283 0.4Z" sodipodi:nodetypes="ccccccccccccccccccccccc"/>
   <path id="shape75" transform="translate(250.1, 318.3)" fill="#93eaff" stroke-opacity="0" stroke="#000000" stroke-width="0" stroke-linecap="square" stroke-linejoin="bevel" d="M0 0.3C0 0.2 0 0.1 0 0C0 0.1 0 0.2 0 0.3Z" sodipodi:nodetypes="ccc"/>
   <path id="shape76" transform="translate(250.1, 317.7)" fill="#93eaff" stroke-opacity="0" stroke="#000000" stroke-width="0" stroke-linecap="square" stroke-linejoin="bevel" d="M0 0.3C0 0.2 0 0.1 0 0C0 0.1 0 0.2 0 0.3Z" sodipodi:nodetypes="ccc"/>
   <path id="shape77" transform="translate(251, 315.8)" fill="#93eaff" stroke-opacity="0" stroke="#000000" stroke-width="0" stroke-linecap="square" stroke-linejoin="bevel" d="M0 0.2C0.1 0.1 0.1 0.1 0.2 0C0.1 0 0 0.1 0 0.2Z" sodipodi:nodetypes="ccc"/>
   <path id="shape78" transform="translate(250.2, 318.9)" fill="#93eaff" stroke-opacity="0" stroke="#000000" stroke-width="0" stroke-linecap="square" stroke-linejoin="bevel" d="M0.1 0.3C0.1 0.2 0 0.1 0 0C-2.84217e-14 0.1 0.1 0.2 0.1 0.3Z" sodipodi:nodetypes="ccc"/>
   <path id="shape79" transform="translate(250.6, 316.2)" fill="#93eaff" stroke-opacity="0" stroke="#000000" stroke-width="0" stroke-linecap="square" stroke-linejoin="bevel" d="M0 0.1C0 0.1 0 0.2 0 0.1C0 0.1 0 0.1 0.1 0C0.1 0 0.1 0.1 0 0.1Z" sodipodi:nodetypes="cccc"/>
   <path id="shape80" transform="translate(250.1, 317.2)" fill="#93eaff" stroke-opacity="0" stroke="#000000" stroke-width="0" stroke-linecap="square" stroke-linejoin="bevel" d="M0 0.3C0 0.2 0 0.1 0.1 0C0.1 0.1 0.1 0.2 0 0.3Z" sodipodi:nodetypes="ccc"/>
   <path id="shape81" transform="translate(250.4, 319.4)" fill="#93eaff" stroke-opacity="0" stroke="#000000" stroke-width="0" stroke-linecap="square" stroke-linejoin="bevel" d="M0.2 0.3C0.1 0.2 0.1 0.1 0 0C0.1 0.1 0.1 0.2 0.2 0.3Z" sodipodi:nodetypes="ccc"/>
   <path id="shape82" transform="translate(250.3, 316.7)" fill="#93eaff" stroke-opacity="0" stroke="#000000" stroke-width="0" stroke-linecap="square" stroke-linejoin="bevel" d="M0 0.2C0 0.1 0.1 0 0.1 0C0.1 0.1 0 0.1 0 0.2Z" sodipodi:nodetypes="ccc"/>
   <path id="shape83" transform="translate(250.8, 319.9)" fill="#93eaff" stroke-opacity="0" stroke="#000000" stroke-width="0" stroke-linecap="square" stroke-linejoin="bevel" d="M0.2 0.2C0.1 0.1 0.1 0 0 0C0 0.1 0.1 0.2 0.2 0.2Z" sodipodi:nodetypes="ccc"/>
   <path id="shape84" transform="translate(251.2, 318)" fill="#93eaff" stroke-opacity="0" stroke="#000000" stroke-width="0" stroke-linecap="square" stroke-linejoin="bevel" d="M46.2 35.7C45.2 34.4 45.5 32.5 46.9 31.6L48.6 30.3L6.9 0L3.6 2.4C2.5 3.2 1 3.1 0 2.3C0 2.3 0.1 2.4 0.1 2.4L0.1 2.4L51.8 39.9C54.2 41.7 54.8 45.1 53 47.5C51.2 49.9 47.8 50.5 45.4 48.7L5.7 20C4.4 19 2.5 19.3 1.6 20.7C0.6 22 0.9 23.9 2.3 24.8L41.9 53.6C47 57.3 54.1 56.2 57.8 51.1C61.5 46 60.4 38.9 55.3 35.2L53.6 34L50.3 36.4C49 37.3 47.1 37 46.2 35.7Z" sodipodi:nodetypes="cccccccccccccccccccc"/>
   <path id="shape85" transform="translate(143, 146.6)" fill="#93eaff" stroke-opacity="0" stroke="#000000" stroke-width="0" stroke-linecap="square" stroke-linejoin="bevel" d="M2.9 14.5C4.5 14.5 5.9 13.2 5.9 11.5C5.9 8.5 8.4 6 11.4 6L42.6 6C44.2 6 45.6 4.7 45.6 3C45.6 1.4 44.3 0 42.6 0L11.4 0C5.1 0 0 5.1 0 11.4C0 13.2 1.3 14.5 2.9 14.5Z" sodipodi:nodetypes="ccccccccc"/>
   <path id="shape86" transform="translate(150.9, 129.7)" fill="#93eaff" stroke-opacity="0" stroke="#000000" stroke-width="0" stroke-linecap="square" stroke-linejoin="bevel" d="M2.9 14.5C4.5 14.5 5.9 13.2 5.9 11.5C5.9 8.5 8.4 6 11.4 6L25.7 6C27.3 6 28.7 4.7 28.7 3C28.7 1.4 27.4 0 25.7 0L11.4 0C5.1 0 0 5.1 0 11.4C0 13.2 1.3 14.5 2.9 14.5Z" sodipodi:nodetypes="ccccccccc"/>
   <path id="shape87" transform="translate(160.7, 113)" fill="#93eaff" stroke-opacity="0" stroke="#000000" stroke-width="0" stroke-linecap="square" stroke-linejoin="bevel" d="M16.9 0L15.6 3.9C15.1 5.5 13.4 6.3 11.9 5.8C10.3 5.3 9.5 3.6 10 2.1L10.7 0.1C4.8 0.5 0 5.4 0 11.4C0 13 1.3 14.4 3 14.4C4.6 14.4 6 13.1 6 11.4C6 8.4 8.5 5.9 11.5 5.9L53 5.9L47.1 0Z" sodipodi:nodetypes="cccccccccccc"/>
   <path id="shape88" transform="translate(228.5, 118.3)" fill="#93eaff" stroke-opacity="0" stroke="#000000" stroke-width="0" stroke-linecap="square" stroke-linejoin="bevel" d="M0 4.7L23.4 13C23.7 13.1 24.1 13.2 24.4 13.2L48.3 13.2L46.4 7.3L25 7.3L4.4 0L3.5 2.7C3 4.2 1.5 5 0 4.7Z" sodipodi:nodetypes="ccccccccc"/>
   <path id="shape89" transform="translate(352, 125.5)" fill="#93eaff" stroke-opacity="0" stroke="#000000" stroke-width="0" stroke-linecap="square" stroke-linejoin="bevel" d="M1.9 6L23.6 6C25.2 6 26.6 4.7 26.6 3C26.6 1.4 25.3 0 23.6 0L0 0C0.1 0.2 0.2 0.4 0.3 0.7Z" sodipodi:nodetypes="ccccccc"/>
   <path id="shape90" transform="translate(360.2, 182.2)" fill="#93eaff" stroke-opacity="0" stroke="#000000" stroke-width="0" stroke-linecap="square" stroke-linejoin="bevel" d="M0 0.5C0 0.6 0 0.7 0 0.8L0 0C0 0.2 0 0.3 0 0.5Z" sodipodi:nodetypes="cccc"/>
   <path id="shape91" transform="translate(366, 179.7)" fill="#93eaff" stroke-opacity="0" stroke="#000000" stroke-width="0" stroke-linecap="square" stroke-linejoin="bevel" d="M27.5 6C29.1 6 30.5 4.7 30.5 3C30.5 1.4 29.2 0 27.5 0L0.2 0L0 5.9L27.5 5.9Z" sodipodi:nodetypes="ccccccc"/>
   <path id="shape92" transform="translate(298.4, 185.7)" fill="#93eaff" stroke-opacity="0" stroke="#000000" stroke-width="0" stroke-linecap="square" stroke-linejoin="bevel" d="M0.2 0C0.1 0.1 0 0.1 0 0.2C0.1 0.2 0.2 0.1 0.2 0Z" sodipodi:nodetypes="ccc"/>
   <path id="shape93" transform="translate(299.8, 183.3)" fill="#93eaff" stroke-opacity="0" stroke="#000000" stroke-width="0" stroke-linecap="square" stroke-linejoin="bevel" d="M0 0.1C0 0.1 0 0 0 0C0 0.1 0 0.2 0 0.3C0 0.2 0 0.1 0 0.1Z" sodipodi:nodetypes="cccc"/>
   <path id="shape94" transform="translate(299.725, 183.8)" fill="#93eaff" stroke-opacity="0" stroke="#000000" stroke-width="0" stroke-linecap="square" stroke-linejoin="bevel" d="M0.075 0C0.075 0.1 0.075 0.2 0.075 0.3C-0.025 0.2 -0.025 0.1 0.075 0Z" sodipodi:nodetypes="ccc"/>
   <path id="shape95" transform="translate(203.6, 180.30475955504)" fill="#93eaff" stroke-opacity="0" stroke="#000000" stroke-width="0" stroke-linecap="square" stroke-linejoin="bevel" d="M90.4 3.99524L89.1 0.0952405L35.4 0.0952405C34.5 0.0952405 33.6 0.495241 33 1.29524L21.8 15.8952L2.3 22.6952L0 29.7952L24.6 21.1952C25.1 20.9952 25.6 20.6952 26 20.1952L36.8 5.99524L66 5.99524L65.1 4.79524C64.9 4.49524 64.7 4.19524 64.6 3.89524C64.2 2.69524 64.6 1.39524 65.6 0.595241C66.9 -0.404759 68.8 -0.104759 69.7 1.19524L73.3 5.89524L93 5.89524C93.1 5.89524 93.1 5.89524 93.2 5.89524C92.1 6.09524 90.9 5.29524 90.4 3.99524Z" sodipodi:nodetypes="ccccccccccccccccccc"/>
   <path id="shape96" transform="translate(297.3, 186.2)" fill="#93eaff" stroke-opacity="0" stroke="#000000" stroke-width="0" stroke-linecap="square" stroke-linejoin="bevel" d="M0.3 0C0.2 0 0.1 0.1 0 0.1C0.1 0.1 0.2 0.1 0.3 0Z" sodipodi:nodetypes="ccc"/>
   <path id="shape97" transform="translate(299.3, 184.9)" fill="#93eaff" stroke-opacity="0" stroke="#000000" stroke-width="0" stroke-linecap="square" stroke-linejoin="bevel" d="M0.1 0C0.1 0.1 0 0.2 0 0.2C5.68434e-14 0.2 5.68434e-14 0.1 0.1 0Z" sodipodi:nodetypes="ccc"/>
   <path id="shape98" transform="translate(299.7, 182.6)" fill="#93eaff" stroke-opacity="0" stroke="#000000" stroke-width="0" stroke-linecap="square" stroke-linejoin="bevel" d="M0 0C0 0.1 0 0.2 0.1 0.3C0 0.2 0 0.1 0 0Z" sodipodi:nodetypes="ccc"/>
   <path id="shape99" transform="translate(299.5, 184.4)" fill="#93eaff" stroke-opacity="0" stroke="#000000" stroke-width="0" stroke-linecap="square" stroke-linejoin="bevel" d="M0.1 0C0.1 0.1 0 0.2 0 0.3C0.1 0.2 0.1 0.1 0.1 0Z" sodipodi:nodetypes="ccc"/>
   <path id="shape100" transform="translate(297.9, 186)" fill="#93eaff" stroke-opacity="0" stroke="#000000" stroke-width="0" stroke-linecap="square" stroke-linejoin="bevel" d="M0.3 0C0.2 0 0.1 0.1 0 0.1C0.1 0.1 0.2 0.1 0.3 0Z" sodipodi:nodetypes="ccc"/>
   <path id="shape101" transform="translate(298.8, 185.4)" fill="#93eaff" stroke-opacity="0" stroke="#000000" stroke-width="0" stroke-linecap="square" stroke-linejoin="bevel" d="M0.2 0C0.1 0.1 0.1 0.1 0 0.2C0.1 0.1 0.2 0 0.2 0Z" sodipodi:nodetypes="ccc"/>
   <path id="shape102" transform="translate(198.452, 203)" fill="#93eaff" stroke-opacity="0" stroke="#000000" stroke-width="0" stroke-linecap="square" stroke-linejoin="bevel" d="M0.148 5.8C0.548 7 1.748 7.8 2.948 7.8C3.248 7.8 3.648 7.7 3.948 7.6L5.348 7.1L7.648 0L2.048 2C0.448 2.6 -0.352 4.3 0.148 5.8Z" sodipodi:nodetypes="ccccccc"/>
   <path id="shape103" transform="translate(212.1, 183.8)" fill="#93eaff" stroke-opacity="0" stroke="#000000" stroke-width="0" stroke-linecap="square" stroke-linejoin="bevel" d="M0.1 0C0.1 0.1 0.1 0.2 0 0.3C0.1 0.2 0.1 0.1 0.1 0Z" sodipodi:nodetypes="ccc"/>
   <path id="shape104" transform="translate(212.2, 182.7)" fill="#93eaff" stroke-opacity="0" stroke="#000000" stroke-width="0" stroke-linecap="square" stroke-linejoin="bevel" d="M0 0C0 0.1 0 0.2 0 0.3C0 0.1 0 0.1 0 0Z" sodipodi:nodetypes="ccc"/>
   <path id="shape105" transform="translate(211.7, 181.6)" fill="#93eaff" stroke-opacity="0" stroke="#000000" stroke-width="0" stroke-linecap="square" stroke-linejoin="bevel" d="M0 0C0.1 0.1 0.1 0.2 0.2 0.3C0.1 0.2 0.1 0.1 0 0Z" sodipodi:nodetypes="ccc"/>
   <path id="shape106" transform="translate(211.3, 181.2)" fill="#93eaff" stroke-opacity="0" stroke="#000000" stroke-width="0" stroke-linecap="square" stroke-linejoin="bevel" d="M0 0C0.1 0.1 0.1 0.1 0.2 0.2C0.2 0.1 0.1 0.1 0 0Z" sodipodi:nodetypes="ccc"/>
   <path id="shape107" transform="translate(212.3, 183.3)" fill="#93eaff" stroke-opacity="0" stroke="#000000" stroke-width="0" stroke-linecap="square" stroke-linejoin="bevel" d="M0 0.1C0 0.1 0 0 0 0C0 0.1 0 0.2 0 0.3C0 0.2 0 0.1 0 0.1Z" sodipodi:nodetypes="cccc"/>
   <path id="shape108" transform="translate(134, 163.4)" fill="#93eaff" stroke-opacity="0" stroke="#000000" stroke-width="0" stroke-linecap="square" stroke-linejoin="bevel" d="M18.5 17.2C20.1 17.7 20.9 19.4 20.4 20.9L19.7 22.9L71.2 22.9L72.5 19C72.9 17.7 74.2 16.9 75.5 17C75.4 17 75.4 17 75.3 17L75.3 17L11.4 17C8.4 17 5.9 14.5 5.9 11.5C5.9 8.5 8.4 6 11.4 6L60.4 6C62 6 63.4 4.7 63.4 3C63.4 1.4 62.1 0 60.4 0L11.4 0C5.1 0 0 5.1 0 11.4C0 17.7 5.1 22.8 11.4 22.8L13.5 22.8L14.8 18.9C15.3 17.5 17 16.7 18.5 17.2Z" sodipodi:nodetypes="cccccccccccccccccccc"/>
   <path id="shape109" transform="translate(210.9, 180.9)" fill="#93eaff" stroke-opacity="0" stroke="#000000" stroke-width="0" stroke-linecap="square" stroke-linejoin="bevel" d="M0 0C0.1 0.1 0.2 0.1 0.2 0.2C0.2 0.1 0.1 0 0 0Z" sodipodi:nodetypes="ccc"/>
   <path id="shape110" transform="translate(212, 182.1)" fill="#93eaff" stroke-opacity="0" stroke="#000000" stroke-width="0" stroke-linecap="square" stroke-linejoin="bevel" d="M0 0C0 0.1 0.1 0.2 0.1 0.3C0.1 0.2 0.1 0.1 0 0Z" sodipodi:nodetypes="ccc"/>
   <path id="shape111" transform="translate(209.8, 180.5)" fill="#93eaff" stroke-opacity="0" stroke="#000000" stroke-width="0" stroke-linecap="square" stroke-linejoin="bevel" d="M0 0C0.1 0 0.2 0 0.3 0.1C0.2 0 0.1 0 0 0Z" sodipodi:nodetypes="ccc"/>
   <path id="shape112" transform="translate(210.4, 180.6)" fill="#93eaff" stroke-opacity="0" stroke="#000000" stroke-width="0" stroke-linecap="square" stroke-linejoin="bevel" d="M0 0C0.1 0 0.2 0.1 0.3 0.1C0.2 0.1 0.1 0 0 0Z" sodipodi:nodetypes="ccc"/>
   <path id="shape113" transform="translate(147.5, 180.452)" fill="#93eaff" stroke-opacity="0" stroke="#000000" stroke-width="0" stroke-linecap="square" stroke-linejoin="bevel" d="M6.9 3.848C7.4 2.248 6.6 0.648 5 0.148C3.4 -0.352 1.8 0.448 1.3 2.048L0 5.948L6.2 5.948Z" sodipodi:nodetypes="cccccc"/>
   <path id="shape114" transform="translate(205.2, 180.4)" fill="#93eaff" stroke-opacity="0" stroke="#000000" stroke-width="0" stroke-linecap="square" stroke-linejoin="bevel" d="M1.3 2.1L0 6L4.1 6C5.5 6 6.6 5.1 6.9 3.8C6.9 3.7 6.9 3.6 7 3.5C7 3.4 7 3.3 7 3.2C7 3.1 7 3 7 2.9C7 2.8 7 2.7 7 2.6C7 2.5 7 2.4 7 2.3C7 2.2 6.9 2.1 6.9 2C6.9 1.9 6.8 1.8 6.8 1.7C6.8 1.6 6.7 1.5 6.7 1.5C6.7 1.4 6.6 1.3 6.5 1.2C6.4 1.1 6.4 1.1 6.3 1C6.2 0.9 6.2 0.9 6.1 0.8C6 0.7 6 0.7 5.9 0.6C5.8 0.5 5.7 0.5 5.7 0.4C5.6 0.4 5.5 0.3 5.5 0.3C5.4 0.3 5.3 0.2 5.2 0.2C5.1 0.2 5 0.1 5 0.1C4.9 0.1 4.8 0 4.7 0C4.6 0 4.5 0 4.4 0C3 0 1.7 0.8 1.3 2.1Z" sodipodi:nodetypes="ccccccccccccccccccccccc"/>
   <path id="shape115" transform="translate(298.352, 111.953226851715)" fill="#0086ff" stroke-opacity="0" stroke="#000000" stroke-width="0" stroke-linecap="square" stroke-linejoin="bevel" d="M3.848 6.14677C6.748 5.24677 9.848 6.74677 10.748 9.64677L20.348 39.2468C20.848 40.8468 22.548 41.6468 24.048 41.1468C25.648 40.6468 26.448 38.9468 25.948 37.4468L16.348 7.84677C14.448 1.84677 7.948 -1.35323 2.048 0.546773C0.448 1.04677 -0.352 2.74677 0.148 4.24677C0.648 5.84677 2.248 6.64677 3.848 6.14677Z" sodipodi:nodetypes="ccccccccc"/>
   <path id="shape116" transform="translate(316.752, 114.253226851715)" fill="#0086ff" stroke-opacity="0" stroke="#000000" stroke-width="0" stroke-linecap="square" stroke-linejoin="bevel" d="M3.848 6.14677C6.748 5.24677 9.848 6.74677 10.748 9.64677L15.148 23.2468C15.648 24.8468 17.348 25.6468 18.848 25.1468C20.448 24.6468 21.248 22.9468 20.748 21.4468L16.348 7.84677C14.448 1.84677 7.948 -1.35323 2.048 0.546773C0.448 1.04677 -0.352 2.74677 0.148 4.24677C0.648 5.74677 2.348 6.64677 3.848 6.14677Z" sodipodi:nodetypes="ccccccccc"/>
   <path id="shape117" transform="translate(359.7, 183)" fill="#0086ff" stroke-opacity="0" stroke="#000000" stroke-width="0" stroke-linecap="square" stroke-linejoin="bevel" d="M6.3 2.7L3.4 2.7C1.9 2.7 0.6 1.5 0.5 0L0 18.5L5.8 24.3Z" sodipodi:nodetypes="cccccc"/>
   <path id="shape118" transform="translate(335.752, 118.328579856272)" fill="#0086ff" stroke-opacity="0" stroke="#000000" stroke-width="0" stroke-linecap="square" stroke-linejoin="bevel" d="M27.348 61.4714L30.448 61.4714L30.648 52.2714C30.648 51.9714 30.648 51.5714 30.548 51.2714L18.148 13.1714L14.048 13.1714C12.448 13.1714 11.048 11.8714 11.048 10.1714C11.048 8.57142 12.348 7.17142 14.048 7.17142L16.148 7.17142C13.948 1.67142 7.848 -1.32858 2.048 0.57142C0.448 1.07142 -0.352 2.77142 0.148 4.27142C0.648 5.87142 2.348 6.67142 3.848 6.17142C6.748 5.27142 9.848 6.77142 10.748 9.67142L24.648 52.4714L24.348 63.7714C24.748 62.4714 25.948 61.4714 27.348 61.4714Z" sodipodi:nodetypes="cccccccccccccccc"/>
   <path id="shape119" transform="translate(359.5, 201.5)" fill="#0086ff" stroke-opacity="0" stroke="#000000" stroke-width="0" stroke-linecap="square" stroke-linejoin="bevel" d="M0.2 7.4L7.6 30.1L12.6 26.4L6 6L6 5.8L0.2 0L0 6.3C5.68434e-14 6.7 0.1 7 0.2 7.4Z" sodipodi:nodetypes="cccccccc"/>
   <path id="shape120" transform="translate(346.9, 125.6)" fill="#0086ff" stroke-opacity="0" stroke="#000000" stroke-width="0" stroke-linecap="square" stroke-linejoin="bevel" d="M0 2.9C0 4.5 1.3 5.9 3 5.9L7.1 5.9L5.4 0.7C5.3 0.5 5.2 0.2 5.1 0L3 0C1.3 0 0 1.3 0 2.9Z" sodipodi:nodetypes="ccccccc"/>
   <path id="shape121" transform="translate(360.2, 179.8)" fill="#0086ff" stroke-opacity="0" stroke="#000000" stroke-width="0" stroke-linecap="square" stroke-linejoin="bevel" d="M2.9 5.9L5.8 5.9L6 0L2.9 0C1.4 0 0.2 1.1 0 2.5L0 3.3C0.1 4.7 1.4 5.9 2.9 5.9Z" sodipodi:nodetypes="ccccccc"/>
   <path id="shape122" transform="translate(390.9, 301.2)" fill="#0086ff" stroke-opacity="0" stroke="#000000" stroke-width="0" stroke-linecap="square" stroke-linejoin="bevel" d="M0 3.7L6.7 24.3C7.2 25.9 8.9 26.7 10.4 26.2C12 25.7 12.8 24 12.3 22.5L5 0C4.8 0.2 4.6 0.3 4.4 0.5Z" sodipodi:nodetypes="ccccccc"/>
   <path id="shape123" transform="translate(343.8, 326.6)" fill="#0086ff" stroke-opacity="0" stroke="#000000" stroke-width="0" stroke-linecap="square" stroke-linejoin="bevel" d="M0.3 0.1C0.2 0.1 0.1 0.2 0 0.2L0.8 0C0.6 0 0.4 0 0.3 0.1Z" sodipodi:nodetypes="cccc"/>
   <path id="shape124" transform="translate(343.1, 331.5)" fill="#0086ff" stroke-opacity="0" stroke="#000000" stroke-width="0" stroke-linecap="square" stroke-linejoin="bevel" d="M8.5 27.8C9 29.4 10.7 30.2 12.2 29.7C13.8 29.2 14.6 27.5 14.1 26L5.7 0L0 1.7Z" sodipodi:nodetypes="cccccc"/>
   <path id="shape125" transform="translate(321.9, 268.9)" fill="#0086ff" stroke-opacity="0" stroke="#000000" stroke-width="0" stroke-linecap="square" stroke-linejoin="bevel" d="M0 0C0.1 0.1 0.1 0.1 0.2 0.2C0.2 0.1 0.1 0.1 0 0Z" sodipodi:nodetypes="ccc"/>
   <path id="shape126" transform="translate(325.2, 269.2)" fill="#0086ff" stroke-opacity="0" stroke="#000000" stroke-width="0" stroke-linecap="square" stroke-linejoin="bevel" d="M0 0.1C0.1 0.1 0.2 0 0.3 0C0.2 0 0.1 0 0 0.1Z" sodipodi:nodetypes="ccc"/>
   <path id="shape127" transform="translate(321.5, 268.5)" fill="#0086ff" stroke-opacity="0" stroke="#000000" stroke-width="0" stroke-linecap="square" stroke-linejoin="bevel" d="M0.2 0.2C0.1 0.1 0.1 0 0 0C0.1 0 0.2 0.1 0.2 0.2Z" sodipodi:nodetypes="ccc"/>
   <path id="shape128" transform="translate(322.4, 269.2)" fill="#0086ff" stroke-opacity="0" stroke="#000000" stroke-width="0" stroke-linecap="square" stroke-linejoin="bevel" d="M0 0C0.1 0 0.2 0.1 0.2 0.1C0.2 0.1 0.1 0.1 0 0Z" sodipodi:nodetypes="ccc"/>
   <path id="shape129" transform="translate(324.7, 269.4)" fill="#0086ff" stroke-opacity="0" stroke="#000000" stroke-width="0" stroke-linecap="square" stroke-linejoin="bevel" d="M0.2 0C0.1 0 0 0.1 0 0.1C0 0.1 0.1 0.1 0.1 0.1C0.1 0 0.2 0 0.2 0Z" sodipodi:nodetypes="cccc"/>
   <path id="shape130" transform="translate(323.5, 269.6)" fill="#0086ff" stroke-opacity="0" stroke="#000000" stroke-width="0" stroke-linecap="square" stroke-linejoin="bevel" d="M0.3 0C0.2 0 0.1 0 0 0C0.1 0 0.2 0 0.3 0Z" sodipodi:nodetypes="ccc"/>
   <path id="shape131" transform="translate(324.1, 269.6)" fill="#0086ff" stroke-opacity="0" stroke="#000000" stroke-width="0" stroke-linecap="square" stroke-linejoin="bevel" d="M0 0C0.1 0 0.2 0 0.3 0C0.1 0 0.1 0 0 0Z" sodipodi:nodetypes="ccc"/>
   <path id="shape132" transform="translate(322.9, 269.4)" fill="#0086ff" stroke-opacity="0" stroke="#000000" stroke-width="0" stroke-linecap="square" stroke-linejoin="bevel" d="M0 0C0.1 0 0.2 0 0.3 0.1C0.2 0.1 0.1 0.1 0 0Z" sodipodi:nodetypes="ccc"/>
   <path id="shape133" transform="translate(269.6, 186.4)" fill="#0086ff" stroke-opacity="0" stroke="#000000" stroke-width="0" stroke-linecap="square" stroke-linejoin="bevel" d="M15.8 20.7C16.2 21.2 16.6 21.5 17.2 21.7L34 27.6L43 55.3L43.8 54.1C44 53.8 44.2 53.6 44.5 53.4C45.5 52.7 46.9 52.6 47.9 53.4C49.2 54.3 49.6 56.2 48.6 57.5L45.2 62.4L51.3 81.2C51.3 81.3 51.3 81.3 51.4 81.4C50.9 80.2 51.3 78.7 52.4 77.9L55.7 75.5L39.1 24.4C38.8 23.5 38.1 22.8 37.3 22.5L19.9 16.4L7.4 0L0 0Z" sodipodi:nodetypes="ccccccccccccccccccc"/>
   <path id="shape134" transform="translate(321.2, 268)" fill="#0086ff" stroke-opacity="0" stroke="#000000" stroke-width="0" stroke-linecap="square" stroke-linejoin="bevel" d="M0 0C0 0.1 0.1 0.2 0.2 0.3C0.1 0.2 0.1 0.1 0 0Z" sodipodi:nodetypes="ccc"/>
   <path id="shape135" transform="translate(268.14671825089, 180.482051544477)" fill="#0086ff" stroke-opacity="0" stroke="#000000" stroke-width="0" stroke-linecap="square" stroke-linejoin="bevel" d="M1.15328 0.617948C0.153281 1.41795 -0.246719 2.71795 0.153281 3.91795C0.253281 4.21795 0.453281 4.51795 0.653281 4.81795L1.55328 6.01795L8.95328 6.01795L5.35328 1.31795C4.35328 -0.182052 2.45328 -0.382052 1.15328 0.617948Z" sodipodi:nodetypes="ccccccc"/>
   <path id="shape136" transform="translate(274.3, 108.715159689632)" fill="#0086ff" stroke-opacity="0" stroke="#000000" stroke-width="0" stroke-linecap="square" stroke-linejoin="bevel" d="M5.6 13.0848C4.7 10.1848 6.2 7.08484 9.1 6.18484C12 5.28484 15.1 6.78484 16 9.68484L23.1 31.4848L32.3 40.6848L21.7 7.88484C19.8 1.88484 13.3 -1.41516 7.4 0.58484C3.7 1.78484 1 4.78484 0 8.28484L6.2 14.4848Z" sodipodi:nodetypes="cccccccccc"/>
   <path id="shape137" transform="translate(299, 185.1)" fill="#0086ff" stroke-opacity="0" stroke="#000000" stroke-width="0" stroke-linecap="square" stroke-linejoin="bevel" d="M0.2 0C0.1 0.1 0.1 0.2 0 0.2C0.1 0.2 0.2 0.1 0.2 0Z" sodipodi:nodetypes="ccc"/>
   <path id="shape138" transform="translate(299.4, 184.6)" fill="#0086ff" stroke-opacity="0" stroke="#000000" stroke-width="0" stroke-linecap="square" stroke-linejoin="bevel" d="M0.1 0C0.1 0.1 0 0.2 0 0.3C0 0.2 0.1 0.1 0.1 0Z" sodipodi:nodetypes="ccc"/>
   <path id="shape139" transform="translate(297.7, 186.2)" fill="#0086ff" stroke-opacity="0" stroke="#000000" stroke-width="0" stroke-linecap="square" stroke-linejoin="bevel" d="M0.1 0C0.1 0 0.2 0 0.2 0C0.1 0 0 0.1 0 0.1C-5.68434e-14 0 -5.68434e-14 0 0.1 0Z" sodipodi:nodetypes="cccc"/>
   <path id="shape140" transform="translate(297, 186.3)" fill="#0086ff" stroke-opacity="0" stroke="#000000" stroke-width="0" stroke-linecap="square" stroke-linejoin="bevel" d="M0.3 0C0.2 0 0.1 0 0 0C0.1 0 0.2 0 0.3 0Z" sodipodi:nodetypes="ccc"/>
   <path id="shape141" transform="translate(307.6, 167)" fill="#0086ff" stroke-opacity="0" stroke="#000000" stroke-width="0" stroke-linecap="square" stroke-linejoin="bevel" d="M1.3 0L0 0C0.4 0.1 0.9 0.1 1.3 0Z" sodipodi:nodetypes="ccc"/>
   <path id="shape142" transform="translate(288.4, 166.9)" fill="#0086ff" stroke-opacity="0" stroke="#000000" stroke-width="0" stroke-linecap="square" stroke-linejoin="bevel" d="M4.4 13.5L8.5 13.5C9.9 13.5 11 14.4 11.3 15.7C11.3 15.6 11.3 15.6 11.3 15.5L11.3 15.5L6.2 0L0 0Z" sodipodi:nodetypes="cccccccc"/>
   <path id="shape143" transform="translate(299.8, 183.5)" fill="#0086ff" stroke-opacity="0" stroke="#000000" stroke-width="0" stroke-linecap="square" stroke-linejoin="bevel" d="M0 0C0 0.1 0 0.2 0 0.3C0 0.2 0 0.1 0 0Z" sodipodi:nodetypes="ccc"/>
   <path id="shape144" transform="translate(298.2, 185.9)" fill="#0086ff" stroke-opacity="0" stroke="#000000" stroke-width="0" stroke-linecap="square" stroke-linejoin="bevel" d="M0.2 0C0.1 0 0 0.1 0 0.1C0 0.1 0.1 0.1 0.2 0Z" sodipodi:nodetypes="ccc"/>
   <path id="shape145" transform="translate(298.7, 185.6)" fill="#0086ff" stroke-opacity="0" stroke="#000000" stroke-width="0" stroke-linecap="square" stroke-linejoin="bevel" d="M0.2 0C0.1 0.1 0.1 0.1 0 0.2C0 0.1 0.1 0 0.2 0Z" sodipodi:nodetypes="ccc"/>
   <path id="shape146" transform="translate(299.8, 182.9)" fill="#0086ff" stroke-opacity="0" stroke="#000000" stroke-width="0" stroke-linecap="square" stroke-linejoin="bevel" d="M0 0C0 0.1 0 0.2 0 0.3C0 0.3 0 0.1 0 0Z" sodipodi:nodetypes="ccc"/>
   <path id="shape147" transform="translate(299.6, 184.1)" fill="#0086ff" stroke-opacity="0" stroke="#000000" stroke-width="0" stroke-linecap="square" stroke-linejoin="bevel" d="M0.1 0C0.1 0.1 0 0.2 0 0.3C0.1 0.2 0.1 0.1 0.1 0Z" sodipodi:nodetypes="ccc"/>
   <path id="shape148" transform="translate(273.672312494678, 117.1)" fill="#0086ff" stroke-opacity="0" stroke="#000000" stroke-width="0" stroke-linecap="square" stroke-linejoin="bevel" d="M0.627688 6.5L1.22769 8.5L5.32769 8.5C6.92769 8.5 8.32769 9.8 8.32769 11.5C8.32769 13.1 7.02769 14.5 5.32769 14.5L3.22769 14.5L14.7277 50L20.9277 50L6.62769 6.2L0.427688 0C-0.172312 2 -0.172312 4.3 0.627688 6.5Z" sodipodi:nodetypes="ccccccccccc"/>
   <path id="shape149" transform="translate(297.3, 140.2)" fill="#0086ff" stroke-opacity="0" stroke="#000000" stroke-width="0" stroke-linecap="square" stroke-linejoin="bevel" d="M8.1 24.8C8.4 25.8 9.3 26.5 10.2 26.8L11.5 26.8C11.6 26.8 11.7 26.8 11.8 26.7C13.4 26.2 14.2 24.5 13.7 23L9.2 9.2L0 0Z" sodipodi:nodetypes="cccccccc"/>
   <path id="shape150" transform="translate(274.9, 125.5)" fill="#0086ff" stroke-opacity="0" stroke="#000000" stroke-width="0" stroke-linecap="square" stroke-linejoin="bevel" d="M4.1 6C5.7 6 7.1 4.7 7.1 3C7.1 1.4 5.8 0 4.1 0L0 0L1.9 5.9L4.1 5.9Z" sodipodi:nodetypes="ccccccc"/>
   <path id="shape151" transform="translate(292.7, 180.4)" fill="#0086ff" stroke-opacity="0" stroke="#000000" stroke-width="0" stroke-linecap="square" stroke-linejoin="bevel" d="M4.1 0L0 0L1.3 3.9C1.7 5.2 3 6 4.3 5.9C4.4 5.9 4.5 5.9 4.6 5.9C4.7 5.9 4.8 5.9 4.9 5.8C5 5.8 5.1 5.8 5.1 5.7C5.2 5.7 5.3 5.6 5.4 5.6C5.5 5.6 5.6 5.5 5.6 5.5C5.7 5.4 5.8 5.4 5.8 5.3C5.9 5.2 6 5.2 6 5.1C6.1 5 6.1 5 6.2 4.9C6.3 4.8 6.3 4.8 6.4 4.7C6.5 4.6 6.5 4.5 6.5 4.5C6.5 4.4 6.6 4.3 6.6 4.2C6.6 4.1 6.7 4 6.7 3.9C6.7 3.8 6.8 3.7 6.8 3.6C6.8 3.5 6.8 3.4 6.8 3.3C6.8 3.2 6.8 3.1 6.8 3C6.8 2.9 6.8 2.8 6.8 2.7C6.8 2.6 6.8 2.5 6.8 2.4C6.8 2.3 6.8 2.2 6.7 2.1C6.7 1 5.5 0 4.1 0Z" sodipodi:nodetypes="ccccccccccccccccccccccc"/>
   <path id="shape152" transform="translate(359.982675378616, 272.8)" fill="#93eaff" stroke-opacity="0" stroke="#000000" stroke-width="0" stroke-linecap="square" stroke-linejoin="bevel" d="M0.517325 8.8C1.51732 10.1 3.31732 10.4 4.61732 9.5L11.9173 4.2L7.71732 0L1.21732 4.7C-0.0826754 5.6 -0.382675 7.5 0.517325 8.8Z" sodipodi:nodetypes="cccccc"/>
   <path id="shape153" transform="translate(367.7, 246.882675378616)" fill="#93eaff" stroke-opacity="0" stroke="#000000" stroke-width="0" stroke-linecap="square" stroke-linejoin="bevel" d="M22.2 17.1173C27.3 13.4173 28.4 6.31732 24.7 1.21732C23.7 -0.0826754 21.9 -0.382675 20.6 0.517325C19.3 1.51732 19 3.31732 19.9 4.61732C21.7 7.01732 21.1 10.5173 18.7 12.2173L0 25.8173L4.2 30.0173Z" sodipodi:nodetypes="cccccccc"/>
   <path id="shape154" transform="translate(377.111160388007, 284.9)" fill="#93eaff" stroke-opacity="0" stroke="#000000" stroke-width="0" stroke-linecap="square" stroke-linejoin="bevel" d="M0.588839 5.1C1.58884 6.4 3.38884 6.7 4.68884 5.8L6.88884 4.2L3.38884 0.7L2.68884 0L1.28884 1C-0.111161 1.9 -0.411161 3.8 0.588839 5.1Z" sodipodi:nodetypes="ccccccc"/>
   <path id="shape155" transform="translate(379.7, 265.182675378616)" fill="#93eaff" stroke-opacity="0" stroke="#000000" stroke-width="0" stroke-linecap="square" stroke-linejoin="bevel" d="M4.3 23.9173L13.7 17.1173C18.8 13.4173 19.9 6.31732 16.2 1.21732C15.2 -0.0826754 13.4 -0.382675 12.1 0.517325C10.8 1.41732 10.5 3.31732 11.4 4.61732C13.2 7.01732 12.6 10.5173 10.2 12.2173L0 19.6173L0.7 20.3173Z" sodipodi:nodetypes="ccccccccc"/>
   <path id="shape156" transform="translate(344.6, 296.9)" fill="#93eaff" stroke-opacity="0" stroke="#000000" stroke-width="0" stroke-linecap="square" stroke-linejoin="bevel" d="M0 29.6C1.4 29.4 2.8 30.2 3.2 31.6L4.2 34.5L13 31.9C13.3 31.8 13.6 31.7 13.9 31.5L46.3 8L45 4.1C44.5 2.5 45.3 0.9 46.9 0.4C47.1 0.3 47.3 0.3 47.5 0.3L47.2 0L10.8 26.4Z" sodipodi:nodetypes="cccccccccccc"/>
   <path id="shape157" transform="translate(299.7, 326.8)" fill="#93eaff" stroke-opacity="0" stroke="#000000" stroke-width="0" stroke-linecap="square" stroke-linejoin="bevel" d="M44.1 0L20.2 7C19.9 7.1 19.6 7.2 19.3 7.4L0 21.4L5 25.1L22.3 12.5L43.3 6.3L42.4 3.5C42 2.1 42.7 0.6 44.1 0Z" sodipodi:nodetypes="ccccccccc"/>
   <path id="shape158" transform="translate(395.7, 300.8)" fill="#93eaff" stroke-opacity="0" stroke="#000000" stroke-width="0" stroke-linecap="square" stroke-linejoin="bevel" d="M0.2 0.4C0.2 0.4 0.3 0.3 0.3 0.3L0 0Z" sodipodi:nodetypes="cccc"/>
   <path id="shape159" transform="translate(391.8, 284.582675378615)" fill="#93eaff" stroke-opacity="0" stroke="#000000" stroke-width="0" stroke-linecap="square" stroke-linejoin="bevel" d="M3.4 14.6173L3.9 16.2173L4.2 16.5173C8.7 12.7173 9.5 6.01732 6 1.21732C5 -0.0826754 3.2 -0.382675 1.9 0.517325C0.6 1.51732 0.3 3.31732 1.2 4.61732C3 7.01732 2.4 10.5173 0 12.2173L0 12.2173L0.3 12.5173C1.7 12.4173 3 13.2173 3.4 14.6173Z" sodipodi:nodetypes="cccccccccc"/>
   <path id="shape160" transform="translate(296.782675378615, 348.2)" fill="#93eaff" stroke-opacity="0" stroke="#000000" stroke-width="0" stroke-linecap="square" stroke-linejoin="bevel" d="M1.21732 1.3C-0.0826754 2.3 -0.382675 4.1 0.517325 5.4C1.51732 6.7 3.31732 7 4.61732 6.1L7.91732 3.7L2.91732 0Z" sodipodi:nodetypes="cccccc"/>
   <path id="shape161" transform="translate(389.452, 297.2)" fill="#93eaff" stroke-opacity="0" stroke="#000000" stroke-width="0" stroke-linecap="square" stroke-linejoin="bevel" d="M2.648 0C2.448 0 2.248 0.1 2.048 0.1C0.448 0.6 -0.352 2.3 0.148 3.8L1.448 7.7L5.948 4.5C6.148 4.4 6.348 4.2 6.548 4L6.448 3.6Z" sodipodi:nodetypes="cccccccc"/>
   <path id="shape162" transform="translate(392.1, 297.169587627597)" fill="#93eaff" stroke-opacity="0" stroke="#000000" stroke-width="0" stroke-linecap="square" stroke-linejoin="bevel" d="M3.1 2.03041C2.7 0.630413 1.3 -0.169587 0 0.0304124L3.7 3.73041Z" sodipodi:nodetypes="cccc"/>
   <path id="shape163" transform="translate(342.038906092146, 326.472177157309)" fill="#93eaff" stroke-opacity="0" stroke="#000000" stroke-width="0" stroke-linecap="square" stroke-linejoin="bevel" d="M2.56109 0.0278229L1.76109 0.227823C0.361094 0.827823 -0.338906 2.42782 0.161094 3.82782L1.06109 6.62782L6.76109 4.92782L5.76109 2.02782C5.26109 0.727823 3.96109 -0.172177 2.56109 0.0278229Z" sodipodi:nodetypes="ccccccc"/>
   <path id="shape164" transform="translate(218.582675378615, 394)" fill="#93eaff" stroke-opacity="0" stroke="#000000" stroke-width="0" stroke-linecap="square" stroke-linejoin="bevel" d="M1.21732 12.3C-0.0826754 13.3 -0.382675 15.1 0.517325 16.4C1.51732 17.7 3.31732 18 4.61732 17.1L22.3173 4.2L18.1173 0Z" sodipodi:nodetypes="cccccc"/>
   <path id="shape165" transform="translate(236.8, 393.6)" fill="#93eaff" stroke-opacity="0" stroke="#000000" stroke-width="0" stroke-linecap="square" stroke-linejoin="bevel" d="M0.6 0L0 0.4L4.2 4.6L5.6 3.6C5.4 3.5 5.2 3.3 5 3.2Z" sodipodi:nodetypes="cccccc"/>
   <path id="shape166" transform="translate(237.4, 390.682675378616)" fill="#93eaff" stroke-opacity="0" stroke="#000000" stroke-width="0" stroke-linecap="square" stroke-linejoin="bevel" d="M7.4 1.21732C6.4 -0.0826754 4.6 -0.382675 3.3 0.517325L0 2.91732L4.5 6.11732C4.7 6.21732 4.9 6.41732 5.1 6.51732L6.8 5.31732C8.1 4.31732 8.3 2.51732 7.4 1.21732Z" sodipodi:nodetypes="ccccccc"/>
   <path id="shape167" transform="translate(172.282675378615, 356.9)" fill="#93eaff" stroke-opacity="0" stroke="#000000" stroke-width="0" stroke-linecap="square" stroke-linejoin="bevel" d="M1.21732 16.1C-0.0826754 17.1 -0.382675 18.9 0.517325 20.2C1.51732 21.5 3.31732 21.8 4.61732 20.9L26.7173 4.9L23.4173 0Z" sodipodi:nodetypes="cccccc"/>
   <path id="shape168" transform="translate(202, 355.6)" fill="#93eaff" stroke-opacity="0" stroke="#000000" stroke-width="0" stroke-linecap="square" stroke-linejoin="bevel" d="M0.2 0.2C0.1 0.1 0.1 0.1 0 0L0.5 0.7C0.4 0.5 0.3 0.4 0.2 0.2Z" sodipodi:nodetypes="cccc"/>
   <path id="shape169" transform="translate(195.7, 355.3)" fill="#93eaff" stroke-opacity="0" stroke="#000000" stroke-width="0" stroke-linecap="square" stroke-linejoin="bevel" d="M6.4 4.1L2.3 0L0 1.6L3.3 6.5L5.8 4.7C6.1 4.5 6.3 4.3 6.4 4.1Z" sodipodi:nodetypes="cccccc"/>
   <path id="shape170" transform="translate(198.1, 354.63320887955)" fill="#93eaff" stroke-opacity="0" stroke="#000000" stroke-width="0" stroke-linecap="square" stroke-linejoin="bevel" d="M0 0.566792L0 0.566792L4.1 4.76679C4.8 3.86679 4.9 2.66679 4.4 1.66679L3.9 0.966792C2.9 -0.133208 1.2 -0.333208 0 0.566792Z" sodipodi:nodetypes="cccccc"/>
   <path id="shape171" transform="translate(250.7, 316)" fill="#93eaff" stroke-opacity="0" stroke="#000000" stroke-width="0" stroke-linecap="square" stroke-linejoin="bevel" d="M0 0.2C0.1 0.1 0.1 0 0.2 0C0.2 0 0.1 0.1 0 0.2Z" sodipodi:nodetypes="ccc"/>
   <path id="shape172" transform="translate(250.4, 316.4)" fill="#93eaff" stroke-opacity="0" stroke="#000000" stroke-width="0" stroke-linecap="square" stroke-linejoin="bevel" d="M0 0.3C0 0.2 0.1 0.1 0.2 0C0.1 0.1 0.1 0.2 0 0.3Z" sodipodi:nodetypes="ccc"/>
   <path id="shape173" transform="translate(250.1, 317.4)" fill="#93eaff" stroke-opacity="0" stroke="#000000" stroke-width="0" stroke-linecap="square" stroke-linejoin="bevel" d="M0 0.3C0 0.2 0 0.1 0 0C0 0.2 0 0.3 0 0.3Z" sodipodi:nodetypes="ccc"/>
   <path id="shape174" transform="translate(251.3, 241.6)" fill="#93eaff" stroke-opacity="0" stroke="#000000" stroke-width="0" stroke-linecap="square" stroke-linejoin="bevel" d="M3.5 74L6.8 76.4L50.3 44.8C51 44.3 51.5 43.4 51.5 42.5L51.9 24.1L63.7 7.1L61.4 0L46.6 21.4C46.3 21.9 46.1 22.4 46.1 23L45.7 40.8L22.1 57.9L23.5 58.3C23.8 58.4 24.1 58.5 24.4 58.7C25.4 59.4 25.9 60.7 25.5 61.9C25 63.5 23.4 64.4 21.8 63.9L16.1 62.2L0.1 73.8C0.1 73.8 0 73.9 0 73.9C0.9 73.3 2.4 73.2 3.5 74Z" sodipodi:nodetypes="ccccccccccccccccccc"/>
   <path id="shape175" transform="translate(250.2, 316.9)" fill="#93eaff" stroke-opacity="0" stroke="#000000" stroke-width="0" stroke-linecap="square" stroke-linejoin="bevel" d="M0 0.3C0 0.2 0.1 0.1 0.1 0C0.1 0.1 0 0.2 0 0.3Z" sodipodi:nodetypes="ccc"/>
   <path id="shape176" transform="translate(250.6, 319.725)" fill="#93eaff" stroke-opacity="0" stroke="#000000" stroke-width="0" stroke-linecap="square" stroke-linejoin="bevel" d="M0 0.075C0 0.075 0.1 0.175 0.1 0.175C0.1 0.075 0 0.075 0 0.075C0 -0.025 0 -0.025 0 0.075Z" sodipodi:nodetypes="cccc"/>
   <path id="shape177" transform="translate(250.3, 319.2)" fill="#93eaff" stroke-opacity="0" stroke="#000000" stroke-width="0" stroke-linecap="square" stroke-linejoin="bevel" d="M0.1 0.2C0.1 0.1 0 0 0 0C0 0 0.1 0.1 0.1 0.2Z" sodipodi:nodetypes="ccc"/>
   <path id="shape178" transform="translate(251, 320.1)" fill="#93eaff" stroke-opacity="0" stroke="#000000" stroke-width="0" stroke-linecap="square" stroke-linejoin="bevel" d="M0.2 0.2C0.1 0.1 0 0.1 0 0C0 0.1 0.1 0.2 0.2 0.2Z" sodipodi:nodetypes="ccc"/>
   <path id="shape179" transform="translate(250.1, 318)" fill="#93eaff" stroke-opacity="0" stroke="#000000" stroke-width="0" stroke-linecap="square" stroke-linejoin="bevel" d="M0 0.3C0 0.2 0 0.1 0 0C0 0.1 0 0.2 0 0.3Z" sodipodi:nodetypes="ccc"/>
   <path id="shape180" transform="translate(250.1, 318.6)" fill="#93eaff" stroke-opacity="0" stroke="#000000" stroke-width="0" stroke-linecap="square" stroke-linejoin="bevel" d="M0.1 0.3C0.1 0.2 0 0.1 0 0C0.1 0.1 0.1 0.2 0.1 0.3Z" sodipodi:nodetypes="ccc"/>
   <path id="shape181" transform="translate(267.3, 299.8)" fill="#93eaff" stroke-opacity="0" stroke="#000000" stroke-width="0" stroke-linecap="square" stroke-linejoin="bevel" d="M9.4 4C9.8 2.8 9.3 1.5 8.3 0.8C8 0.6 7.7 0.5 7.4 0.4L6 0L0 4.4L5.7 6.1C7.2 6.4 8.9 5.5 9.4 4Z" sodipodi:nodetypes="ccccccc"/>
   <path id="shape182" transform="translate(250.1, 315.04766263606)" fill="#93eaff" stroke-opacity="0" stroke="#000000" stroke-width="0" stroke-linecap="square" stroke-linejoin="bevel" d="M4.7 5.35234L8 2.95234L4.7 0.552338C3.6 -0.247662 2.1 -0.147662 1.1 0.652338C1 0.752338 1 0.752338 0.9 0.852338C0.8 0.952338 0.8 1.05234 0.7 1.05234C0.6 1.15234 0.6 1.15234 0.5 1.25234C0.4 1.35234 0.4 1.45234 0.3 1.55234C0.3 1.65234 0.2 1.75234 0.2 1.75234C0.2 1.85234 0.1 1.95234 0.1 2.05234C0.1 2.15234 0 2.25234 0 2.35234C0 2.45234 0 2.55234 0 2.65234C0 2.75234 0 2.85234 0 2.95234C0 3.05234 0 3.15234 0 3.25234C0 3.35234 0 3.45234 0 3.55234C0 3.65234 0 3.75234 0.1 3.85234C0.1 3.95234 0.2 4.05234 0.2 4.15234C0.2 4.25234 0.3 4.35234 0.3 4.35234C0.4 4.45234 0.4 4.55234 0.5 4.65234C0.5 4.75234 0.6 4.75234 0.7 4.85234C0.8 4.95234 0.8 5.05234 0.9 5.05234C1 5.15234 1 5.15234 1.1 5.25234C2.1 6.15234 3.6 6.15234 4.7 5.35234Z" sodipodi:nodetypes="ccccccccccccccccccccccc"/>
   <path id="shape183" transform="translate(312.7, 239.275)" fill="#93eaff" stroke-opacity="0" stroke="#000000" stroke-width="0" stroke-linecap="square" stroke-linejoin="bevel" d="M5.6 4.625C6.5 3.325 6.2 1.425 4.9 0.525C3.8 -0.175 2.5 -0.175 1.5 0.525C1.2 0.725 1 0.925 0.8 1.225L0 2.425L2.3 9.525Z" sodipodi:nodetypes="ccccccc"/>
   <path id="shape184" transform="translate(324.3, 269.4)" fill="#93eaff" stroke-opacity="0" stroke="#000000" stroke-width="0" stroke-linecap="square" stroke-linejoin="bevel" d="M0 0.1C0.1 0.1 0.2 0.1 0.3 0C0.2 0.1 0.1 0.1 0 0.1Z" sodipodi:nodetypes="ccc"/>
   <path id="shape185" transform="translate(321.7, 268.7)" fill="#93eaff" stroke-opacity="0" stroke="#000000" stroke-width="0" stroke-linecap="square" stroke-linejoin="bevel" d="M0.2 0.2C0.1 0.1 0.1 0.1 0 0C0.1 0.1 0.2 0.1 0.2 0.2Z" sodipodi:nodetypes="ccc"/>
   <path id="shape186" transform="translate(324.9, 269.3)" fill="#93eaff" stroke-opacity="0" stroke="#000000" stroke-width="0" stroke-linecap="square" stroke-linejoin="bevel" d="M0 0.1C0.1 0.1 0.2 0 0.3 0C0.2 5.68434e-14 0.1 5.68434e-14 0 0.1Z" sodipodi:nodetypes="ccc"/>
   <path id="shape187" transform="translate(323.2, 269.5)" fill="#93eaff" stroke-opacity="0" stroke="#000000" stroke-width="0" stroke-linecap="square" stroke-linejoin="bevel" d="M0 0C0.1 0 0.2 0 0.3 0.1C0.2 0.1 0.1 0 0 0Z" sodipodi:nodetypes="ccc"/>
   <path id="shape188" transform="translate(323.8, 269.6)" fill="#93eaff" stroke-opacity="0" stroke="#000000" stroke-width="0" stroke-linecap="square" stroke-linejoin="bevel" d="M0.3 0C0.2 0 0.1 0 0 0C0.1 0 0.2 0 0.3 0Z" sodipodi:nodetypes="ccc"/>
   <path id="shape189" transform="translate(321.3, 268.3)" fill="#93eaff" stroke-opacity="0" stroke="#000000" stroke-width="0" stroke-linecap="square" stroke-linejoin="bevel" d="M0.2 0.2C0.1 0.1 0.1 0.1 0 0C0.1 0 0.1 0 0.2 0.2C0.2 0.1 0.2 0.1 0.2 0.2Z" sodipodi:nodetypes="cccc"/>
   <path id="shape190" transform="translate(322.7, 269.3)" fill="#93eaff" stroke-opacity="0" stroke="#000000" stroke-width="0" stroke-linecap="square" stroke-linejoin="bevel" d="M0 0C0.1 0 0.2 0.1 0.3 0.1C0.1 0.1 0.1 0.1 0 0Z" sodipodi:nodetypes="ccc"/>
   <path id="shape191" transform="translate(383, 224.8)" fill="#93eaff" stroke-opacity="0" stroke="#000000" stroke-width="0" stroke-linecap="square" stroke-linejoin="bevel" d="M6.7 4.4C5 2.1 2.6 0.6 0 0L8.6 8.6C8.2 7.1 7.6 5.7 6.7 4.4Z" sodipodi:nodetypes="cccc"/>
   <path id="shape192" transform="translate(322.2, 269.1)" fill="#93eaff" stroke-opacity="0" stroke="#000000" stroke-width="0" stroke-linecap="square" stroke-linejoin="bevel" d="M0 0C0.1 0.1 0.2 0.1 0.2 0.2C0.1 0.1 0.1 0 0 0Z" sodipodi:nodetypes="ccc"/>
   <path id="shape193" transform="translate(325.3, 248.6)" fill="#93eaff" stroke-opacity="0" stroke="#000000" stroke-width="0" stroke-linecap="square" stroke-linejoin="bevel" d="M0.1 20.5C0.1 20.5 0.2 20.5 0.2 20.4L0.2 20.4L22.4 4.2L18.2 0L0 13.2L1.3 17.1C1.8 18.4 1.2 19.8 0.1 20.5Z" sodipodi:nodetypes="cccccccc"/>
   <path id="shape194" transform="translate(321.1, 267.7)" fill="#93eaff" stroke-opacity="0" stroke="#000000" stroke-width="0" stroke-linecap="square" stroke-linejoin="bevel" d="M0 0C0 0.1 0.1 0.2 0.1 0.3C0.1 0.2 0 0.1 0 0Z" sodipodi:nodetypes="ccc"/>
   <path id="shape195" transform="translate(342.782675378616, 260.7)" fill="#93eaff" stroke-opacity="0" stroke="#000000" stroke-width="0" stroke-linecap="square" stroke-linejoin="bevel" d="M1.21732 8.4C-0.0826754 9.4 -0.382675 11.2 0.517325 12.5C1.51732 13.8 3.31732 14.1 4.61732 13.2L17.0173 4.2L12.8173 0Z" sodipodi:nodetypes="cccccc"/>
   <path id="shape196" transform="translate(343.5, 224.51922903592)" fill="#93eaff" stroke-opacity="0" stroke="#000000" stroke-width="0" stroke-linecap="square" stroke-linejoin="bevel" d="M33.7 6.98077C36.1 5.18077 39.6 5.78077 41.3 8.18077C43.1 10.5808 42.5 14.0808 40.1 15.7808L12.1 36.1808L16.3 40.3808L43.6 20.5808C47.4 17.7808 49 13.1808 48 8.88077L39.4 0.28077C36.3 -0.41923 32.9 0.18077 30.2 2.18077L28.5 3.38077L29.8 7.28077C30.3 8.88077 29.5 10.4808 27.9 10.9808C26.3 11.4808 24.7 10.6808 24.2 9.08077L23.5 7.08077L0 24.1808L4.2 28.3808Z" sodipodi:nodetypes="ccccccccccccccccc"/>
   <path id="shape197" transform="translate(367, 227.9)" fill="#93eaff" stroke-opacity="0" stroke="#000000" stroke-width="0" stroke-linecap="square" stroke-linejoin="bevel" d="M0.7 5.7C1.2 7.3 2.9 8.1 4.4 7.6C6 7.1 6.8 5.4 6.3 3.9L5 0L0 3.7Z" sodipodi:nodetypes="cccccc"/>
   <path id="shape198" transform="translate(320.887168563205, 262)" fill="#93eaff" stroke-opacity="0" stroke="#000000" stroke-width="0" stroke-linecap="square" stroke-linejoin="bevel" d="M0.212832 5.7C0.212832 5.8 0.312832 5.9 0.312832 6C0.312832 6.1 0.412832 6.2 0.512832 6.3C0.512832 6.4 0.612832 6.4 0.712832 6.5C0.812832 6.6 0.812832 6.7 0.912832 6.7C1.01283 6.8 1.01283 6.8 1.11283 6.9C1.21283 7 1.31283 7 1.31283 7.1C1.41283 7.2 1.51283 7.2 1.51283 7.3C1.61283 7.3 1.71283 7.4 1.71283 7.4C1.81283 7.4 1.91283 7.5 2.01283 7.5C2.11283 7.5 2.21283 7.5 2.31283 7.6C2.41283 7.6 2.51283 7.6 2.61283 7.7C2.71283 7.7 2.81283 7.7 2.91283 7.7C3.01283 7.7 3.11283 7.7 3.21283 7.7C3.31283 7.7 3.41283 7.7 3.51283 7.7C3.61283 7.7 3.71283 7.7 3.81283 7.6C3.91283 7.6 4.01283 7.5 4.01283 7.5C4.11283 7.5 4.21283 7.4 4.31283 7.4C4.41283 7.4 4.51283 7.3 4.61283 7.3C5.71283 6.6 6.21283 5.2 5.81283 3.9L4.51283 0L1.21283 2.4C0.112832 3 -0.287168 4.5 0.212832 5.7Z" sodipodi:nodetypes="ccccccccccccccccccccccc"/>
   <path id="shape199" transform="translate(0, 167)" fill="#93eaff" stroke-opacity="0" stroke="#000000" stroke-width="0" stroke-linecap="square" stroke-linejoin="bevel" d="M0 166L71 166L71 0C71 0 2.7 0 0 0Z" sodipodi:nodetypes="ccccc"/>
  </g>
 </g>
</svg>
